<?xml version="1.0" encoding="utf-8"?>
<svg xmlns="http://www.w3.org/2000/svg" xmlns:xlink="http://www.w3.org/1999/xlink" width="600" height="400" viewBox="0 0 2400 1600">
<defs>
  <clipPath id="clip1200">
    <rect x="0" y="0" width="2400" height="1600"/>
  </clipPath>
</defs>
<polygon clip-path="url(#clip1200)" points="
0,1600 2400,1600 2400,0 0,0 
  " fill="#ffffff" fill-rule="evenodd" fill-opacity="1"/>
<defs>
  <clipPath id="clip1201">
    <rect x="480" y="0" width="1681" height="1600"/>
  </clipPath>
</defs>
<polygon clip-path="url(#clip1200)" points="
234.185,1487.47 2352.76,1487.47 2352.76,47.2441 234.185,47.2441 
  " fill="#ffffff" fill-rule="evenodd" fill-opacity="1"/>
<defs>
  <clipPath id="clip1202">
    <rect x="234" y="47" width="2120" height="1441"/>
  </clipPath>
</defs>
<polyline clip-path="url(#clip1202)" style="stroke:#000000; stroke-width:2; stroke-opacity:0.1; fill:none" points="
  294.145,1487.47 294.145,47.2441 
  "/>
<polyline clip-path="url(#clip1202)" style="stroke:#000000; stroke-width:2; stroke-opacity:0.1; fill:none" points="
  793.807,1487.47 793.807,47.2441 
  "/>
<polyline clip-path="url(#clip1202)" style="stroke:#000000; stroke-width:2; stroke-opacity:0.1; fill:none" points="
  1293.47,1487.47 1293.47,47.2441 
  "/>
<polyline clip-path="url(#clip1202)" style="stroke:#000000; stroke-width:2; stroke-opacity:0.1; fill:none" points="
  1793.13,1487.47 1793.13,47.2441 
  "/>
<polyline clip-path="url(#clip1202)" style="stroke:#000000; stroke-width:2; stroke-opacity:0.1; fill:none" points="
  2292.8,1487.47 2292.8,47.2441 
  "/>
<polyline clip-path="url(#clip1202)" style="stroke:#000000; stroke-width:2; stroke-opacity:0.1; fill:none" points="
  234.185,1311.45 2352.76,1311.45 
  "/>
<polyline clip-path="url(#clip1202)" style="stroke:#000000; stroke-width:2; stroke-opacity:0.1; fill:none" points="
  234.185,903.637 2352.76,903.637 
  "/>
<polyline clip-path="url(#clip1202)" style="stroke:#000000; stroke-width:2; stroke-opacity:0.1; fill:none" points="
  234.185,495.821 2352.76,495.821 
  "/>
<polyline clip-path="url(#clip1202)" style="stroke:#000000; stroke-width:2; stroke-opacity:0.1; fill:none" points="
  234.185,88.004 2352.76,88.004 
  "/>
<polyline clip-path="url(#clip1200)" style="stroke:#000000; stroke-width:4; stroke-opacity:1; fill:none" points="
  234.185,1487.47 2352.76,1487.47 
  "/>
<polyline clip-path="url(#clip1200)" style="stroke:#000000; stroke-width:4; stroke-opacity:1; fill:none" points="
  234.185,1487.47 234.185,47.2441 
  "/>
<polyline clip-path="url(#clip1200)" style="stroke:#000000; stroke-width:4; stroke-opacity:1; fill:none" points="
  294.145,1487.47 294.145,1465.87 
  "/>
<polyline clip-path="url(#clip1200)" style="stroke:#000000; stroke-width:4; stroke-opacity:1; fill:none" points="
  793.807,1487.47 793.807,1465.87 
  "/>
<polyline clip-path="url(#clip1200)" style="stroke:#000000; stroke-width:4; stroke-opacity:1; fill:none" points="
  1293.47,1487.47 1293.47,1465.87 
  "/>
<polyline clip-path="url(#clip1200)" style="stroke:#000000; stroke-width:4; stroke-opacity:1; fill:none" points="
  1793.13,1487.47 1793.13,1465.87 
  "/>
<polyline clip-path="url(#clip1200)" style="stroke:#000000; stroke-width:4; stroke-opacity:1; fill:none" points="
  2292.8,1487.47 2292.8,1465.87 
  "/>
<polyline clip-path="url(#clip1200)" style="stroke:#000000; stroke-width:4; stroke-opacity:1; fill:none" points="
  234.185,1311.45 265.964,1311.45 
  "/>
<polyline clip-path="url(#clip1200)" style="stroke:#000000; stroke-width:4; stroke-opacity:1; fill:none" points="
  234.185,903.637 265.964,903.637 
  "/>
<polyline clip-path="url(#clip1200)" style="stroke:#000000; stroke-width:4; stroke-opacity:1; fill:none" points="
  234.185,495.821 265.964,495.821 
  "/>
<polyline clip-path="url(#clip1200)" style="stroke:#000000; stroke-width:4; stroke-opacity:1; fill:none" points="
  234.185,88.004 265.964,88.004 
  "/>
<g clip-path="url(#clip1200)">
<text style="fill:#000000; fill-opacity:1; font-family:Arial,Helvetica Neue,Helvetica,sans-serif; font-size:48px; text-anchor:middle;" transform="rotate(0, 294.145, 1541.47)" x="294.145" y="1541.47">-0.10</text>
</g>
<g clip-path="url(#clip1200)">
<text style="fill:#000000; fill-opacity:1; font-family:Arial,Helvetica Neue,Helvetica,sans-serif; font-size:48px; text-anchor:middle;" transform="rotate(0, 793.807, 1541.47)" x="793.807" y="1541.47">-0.05</text>
</g>
<g clip-path="url(#clip1200)">
<text style="fill:#000000; fill-opacity:1; font-family:Arial,Helvetica Neue,Helvetica,sans-serif; font-size:48px; text-anchor:middle;" transform="rotate(0, 1293.47, 1541.47)" x="1293.47" y="1541.47">0.00</text>
</g>
<g clip-path="url(#clip1200)">
<text style="fill:#000000; fill-opacity:1; font-family:Arial,Helvetica Neue,Helvetica,sans-serif; font-size:48px; text-anchor:middle;" transform="rotate(0, 1793.13, 1541.47)" x="1793.13" y="1541.47">0.05</text>
</g>
<g clip-path="url(#clip1200)">
<text style="fill:#000000; fill-opacity:1; font-family:Arial,Helvetica Neue,Helvetica,sans-serif; font-size:48px; text-anchor:middle;" transform="rotate(0, 2292.8, 1541.47)" x="2292.8" y="1541.47">0.10</text>
</g>
<g clip-path="url(#clip1200)">
<text style="fill:#000000; fill-opacity:1; font-family:Arial,Helvetica Neue,Helvetica,sans-serif; font-size:48px; text-anchor:end;" transform="rotate(0, 210.185, 1328.95)" x="210.185" y="1328.95">0.9985</text>
</g>
<g clip-path="url(#clip1200)">
<text style="fill:#000000; fill-opacity:1; font-family:Arial,Helvetica Neue,Helvetica,sans-serif; font-size:48px; text-anchor:end;" transform="rotate(0, 210.185, 921.137)" x="210.185" y="921.137">0.9990</text>
</g>
<g clip-path="url(#clip1200)">
<text style="fill:#000000; fill-opacity:1; font-family:Arial,Helvetica Neue,Helvetica,sans-serif; font-size:48px; text-anchor:end;" transform="rotate(0, 210.185, 513.321)" x="210.185" y="513.321">0.9995</text>
</g>
<g clip-path="url(#clip1200)">
<text style="fill:#000000; fill-opacity:1; font-family:Arial,Helvetica Neue,Helvetica,sans-serif; font-size:48px; text-anchor:end;" transform="rotate(0, 210.185, 105.504)" x="210.185" y="105.504">1.0000</text>
</g>
<polyline clip-path="url(#clip1202)" style="stroke:#009af9; stroke-width:4; stroke-opacity:1; fill:none" points="
  294.145,1446.71 296.145,1441.28 298.146,1435.86 300.147,1430.45 302.147,1425.05 304.148,1419.66 306.148,1414.28 308.149,1408.92 310.15,1403.56 312.15,1398.22 
  314.151,1392.88 316.152,1387.56 318.152,1382.25 320.153,1376.94 322.154,1371.65 324.154,1366.37 326.155,1361.1 328.156,1355.84 330.156,1350.6 332.157,1345.36 
  334.158,1340.14 336.158,1334.92 338.159,1329.72 340.16,1324.52 342.16,1319.34 344.161,1314.17 346.162,1309.01 348.162,1303.86 350.163,1298.72 352.163,1293.59 
  354.164,1288.48 356.165,1283.37 358.165,1278.27 360.166,1273.19 362.167,1268.12 364.167,1263.05 366.168,1258 368.169,1252.96 370.169,1247.93 372.17,1242.91 
  374.171,1237.9 376.171,1232.91 378.172,1227.92 380.173,1222.94 382.173,1217.98 384.174,1213.03 386.175,1208.08 388.175,1203.15 390.176,1198.23 392.177,1193.32 
  394.177,1188.42 396.178,1183.53 398.178,1178.65 400.179,1173.78 402.18,1168.93 404.18,1164.08 406.181,1159.25 408.182,1154.43 410.182,1149.61 412.183,1144.81 
  414.184,1140.02 416.184,1135.24 418.185,1130.47 420.186,1125.71 422.186,1120.97 424.187,1116.23 426.188,1111.5 428.188,1106.79 430.189,1102.08 432.19,1097.39 
  434.19,1092.71 436.191,1088.04 438.192,1083.38 440.192,1078.73 442.193,1074.09 444.193,1069.46 446.194,1064.84 448.195,1060.24 450.195,1055.64 452.196,1051.06 
  454.197,1046.49 456.197,1041.92 458.198,1037.37 460.199,1032.83 462.199,1028.3 464.2,1023.78 466.201,1019.27 468.201,1014.78 470.202,1010.29 472.203,1005.81 
  474.203,1001.35 476.204,996.895 478.205,992.452 480.205,988.02 482.206,983.598 484.207,979.188 486.207,974.789 488.208,970.4 490.208,966.022 492.209,961.655 
  494.21,957.299 496.21,952.954 498.211,948.62 500.212,944.297 502.212,939.984 504.213,935.683 506.214,931.392 508.214,927.112 510.215,922.843 512.216,918.585 
  514.216,914.338 516.217,910.102 518.218,905.876 520.218,901.662 522.219,897.458 524.22,893.265 526.22,889.083 528.221,884.912 530.222,880.752 532.222,876.603 
  534.223,872.464 536.223,868.337 538.224,864.22 540.225,860.114 542.225,856.019 544.226,851.935 546.227,847.862 548.227,843.8 550.228,839.749 552.229,835.708 
  554.229,831.678 556.23,827.66 558.231,823.652 560.231,819.655 562.232,815.669 564.233,811.693 566.233,807.729 568.234,803.776 570.235,799.833 572.235,795.901 
  574.236,791.98 576.237,788.07 578.237,784.171 580.238,780.283 582.239,776.406 584.239,772.539 586.24,768.684 588.24,764.839 590.241,761.005 592.242,757.182 
  594.242,753.37 596.243,749.569 598.244,745.779 600.244,741.999 602.245,738.231 604.246,734.473 606.246,730.727 608.247,726.991 610.248,723.266 612.248,719.552 
  614.249,715.848 616.25,712.156 618.25,708.475 620.251,704.804 622.252,701.144 624.252,697.495 626.253,693.858 628.254,690.23 630.254,686.614 632.255,683.009 
  634.255,679.415 636.256,675.831 638.257,672.258 640.257,668.697 642.258,665.146 644.259,661.606 646.259,658.077 648.26,654.558 650.261,651.051 652.261,647.555 
  654.262,644.069 656.263,640.594 658.263,637.131 660.264,633.678 662.265,630.236 664.265,626.804 666.266,623.384 668.267,619.975 670.267,616.576 672.268,613.189 
  674.269,609.812 676.269,606.446 678.27,603.091 680.27,599.747 682.271,596.414 684.272,593.092 686.272,589.78 688.273,586.48 690.274,583.19 692.274,579.911 
  694.275,576.643 696.276,573.386 698.276,570.14 700.277,566.905 702.278,563.681 704.278,560.467 706.279,557.264 708.28,554.073 710.28,550.892 712.281,547.722 
  714.282,544.563 716.282,541.415 718.283,538.278 720.284,535.151 722.284,532.036 724.285,528.931 726.285,525.837 728.286,522.755 730.287,519.683 732.287,516.622 
  734.288,513.571 736.289,510.532 738.289,507.504 740.29,504.486 742.291,501.48 744.291,498.484 746.292,495.499 748.293,492.525 750.293,489.562 752.294,486.61 
  754.295,483.668 756.295,480.738 758.296,477.819 760.297,474.91 762.297,472.012 764.298,469.125 766.299,466.249 768.299,463.384 770.3,460.53 772.3,457.687 
  774.301,454.854 776.302,452.033 778.302,449.222 780.303,446.422 782.304,443.633 784.304,440.855 786.305,438.088 788.306,435.332 790.306,432.587 792.307,429.852 
  794.308,427.129 796.308,424.416 798.309,421.714 800.31,419.024 802.31,416.344 804.311,413.675 806.312,411.016 808.312,408.369 810.313,405.733 812.314,403.107 
  814.314,400.492 816.315,397.889 818.315,395.296 820.316,392.714 822.317,390.143 824.317,387.582 826.318,385.033 828.319,382.495 830.319,379.967 832.32,377.451 
  834.321,374.945 836.321,372.45 838.322,369.966 840.323,367.493 842.323,365.031 844.324,362.579 846.325,360.139 848.325,357.709 850.326,355.291 852.327,352.883 
  854.327,350.486 856.328,348.1 858.329,345.725 860.329,343.361 862.33,341.008 864.33,338.665 866.331,336.334 868.332,334.013 870.332,331.703 872.333,329.405 
  874.334,327.117 876.334,324.84 878.335,322.573 880.336,320.318 882.336,318.074 884.337,315.84 886.338,313.618 888.338,311.406 890.339,309.205 892.34,307.015 
  894.34,304.836 896.341,302.668 898.342,300.511 900.342,298.365 902.343,296.229 904.344,294.104 906.344,291.991 908.345,289.888 910.346,287.796 912.346,285.715 
  914.347,283.645 916.347,281.586 918.348,279.537 920.349,277.5 922.349,275.473 924.35,273.458 926.351,271.453 928.351,269.459 930.352,267.476 932.353,265.504 
  934.353,263.543 936.354,261.593 938.355,259.653 940.355,257.725 942.356,255.807 944.357,253.9 946.357,252.005 948.358,250.12 950.359,248.246 952.359,246.382 
  954.36,244.53 956.361,242.689 958.361,240.858 960.362,239.039 962.362,237.23 964.363,235.432 966.364,233.645 968.364,231.869 970.365,230.104 972.366,228.35 
  974.366,226.607 976.367,224.874 978.368,223.153 980.368,221.442 982.369,219.742 984.37,218.054 986.37,216.376 988.371,214.709 990.372,213.052 992.372,211.407 
  994.373,209.773 996.374,208.149 998.374,206.537 1000.37,204.935 1002.38,203.344 1004.38,201.764 1006.38,200.195 1008.38,198.637 1010.38,197.09 1012.38,195.553 
  1014.38,194.028 1016.38,192.513 1018.38,191.01 1020.38,189.517 1022.38,188.035 1024.38,186.564 1026.38,185.104 1028.38,183.655 1030.38,182.217 1032.39,180.789 
  1034.39,179.373 1036.39,177.967 1038.39,176.572 1040.39,175.189 1042.39,173.816 1044.39,172.454 1046.39,171.103 1048.39,169.762 1050.39,168.433 1052.39,167.114 
  1054.39,165.807 1056.39,164.51 1058.39,163.225 1060.39,161.95 1062.4,160.686 1064.4,159.433 1066.4,158.19 1068.4,156.959 1070.4,155.739 1072.4,154.529 
  1074.4,153.331 1076.4,152.143 1078.4,150.966 1080.4,149.8 1082.4,148.645 1084.4,147.501 1086.4,146.368 1088.4,145.246 1090.4,144.134 1092.4,143.034 
  1094.41,141.944 1096.41,140.865 1098.41,139.797 1100.41,138.74 1102.41,137.694 1104.41,136.659 1106.41,135.635 1108.41,134.621 1110.41,133.619 1112.41,132.627 
  1114.41,131.647 1116.41,130.677 1118.41,129.718 1120.41,128.77 1122.41,127.833 1124.42,126.907 1126.42,125.991 1128.42,125.087 1130.42,124.193 1132.42,123.311 
  1134.42,122.439 1136.42,121.578 1138.42,120.728 1140.42,119.889 1142.42,119.061 1144.42,118.244 1146.42,117.438 1148.42,116.642 1150.42,115.858 1152.42,115.084 
  1154.43,114.321 1156.43,113.569 1158.43,112.828 1160.43,112.098 1162.43,111.379 1164.43,110.671 1166.43,109.973 1168.43,109.287 1170.43,108.611 1172.43,107.947 
  1174.43,107.293 1176.43,106.65 1178.43,106.018 1180.43,105.397 1182.43,104.786 1184.43,104.187 1186.44,103.599 1188.44,103.021 1190.44,102.455 1192.44,101.899 
  1194.44,101.354 1196.44,100.82 1198.44,100.297 1200.44,99.7848 1202.44,99.2836 1204.44,98.7932 1206.44,98.3138 1208.44,97.8452 1210.44,97.3875 1212.44,96.9408 
  1214.44,96.5049 1216.45,96.0799 1218.45,95.6658 1220.45,95.2627 1222.45,94.8704 1224.45,94.489 1226.45,94.1185 1228.45,93.7589 1230.45,93.4102 1232.45,93.0724 
  1234.45,92.7455 1236.45,92.4295 1238.45,92.1244 1240.45,91.8301 1242.45,91.5468 1244.45,91.2744 1246.46,91.0129 1248.46,90.7623 1250.46,90.5225 1252.46,90.2937 
  1254.46,90.0757 1256.46,89.8687 1258.46,89.6726 1260.46,89.4873 1262.46,89.313 1264.46,89.1495 1266.46,88.997 1268.46,88.8553 1270.46,88.7245 1272.46,88.6047 
  1274.46,88.4957 1276.46,88.3976 1278.47,88.3105 1280.47,88.2342 1282.47,88.1688 1284.47,88.1143 1286.47,88.0707 1288.47,88.038 1290.47,88.0162 1292.47,88.0053 
  1294.47,88.0053 1296.47,88.0162 1298.47,88.038 1300.47,88.0707 1302.47,88.1143 1304.47,88.1688 1306.47,88.2342 1308.48,88.3105 1310.48,88.3976 1312.48,88.4957 
  1314.48,88.6047 1316.48,88.7245 1318.48,88.8553 1320.48,88.997 1322.48,89.1495 1324.48,89.313 1326.48,89.4873 1328.48,89.6726 1330.48,89.8687 1332.48,90.0757 
  1334.48,90.2937 1336.48,90.5225 1338.49,90.7623 1340.49,91.0129 1342.49,91.2744 1344.49,91.5468 1346.49,91.8301 1348.49,92.1244 1350.49,92.4295 1352.49,92.7455 
  1354.49,93.0724 1356.49,93.4102 1358.49,93.7589 1360.49,94.1185 1362.49,94.489 1364.49,94.8704 1366.49,95.2627 1368.49,95.6658 1370.5,96.0799 1372.5,96.5049 
  1374.5,96.9408 1376.5,97.3875 1378.5,97.8452 1380.5,98.3138 1382.5,98.7932 1384.5,99.2836 1386.5,99.7848 1388.5,100.297 1390.5,100.82 1392.5,101.354 
  1394.5,101.899 1396.5,102.455 1398.5,103.021 1400.51,103.599 1402.51,104.187 1404.51,104.786 1406.51,105.397 1408.51,106.018 1410.51,106.65 1412.51,107.293 
  1414.51,107.947 1416.51,108.611 1418.51,109.287 1420.51,109.973 1422.51,110.671 1424.51,111.379 1426.51,112.098 1428.51,112.828 1430.52,113.569 1432.52,114.321 
  1434.52,115.084 1436.52,115.858 1438.52,116.642 1440.52,117.438 1442.52,118.244 1444.52,119.061 1446.52,119.889 1448.52,120.728 1450.52,121.578 1452.52,122.439 
  1454.52,123.311 1456.52,124.193 1458.52,125.087 1460.52,125.991 1462.53,126.907 1464.53,127.833 1466.53,128.77 1468.53,129.718 1470.53,130.677 1472.53,131.647 
  1474.53,132.627 1476.53,133.619 1478.53,134.621 1480.53,135.635 1482.53,136.659 1484.53,137.694 1486.53,138.74 1488.53,139.797 1490.53,140.865 1492.54,141.944 
  1494.54,143.034 1496.54,144.134 1498.54,145.246 1500.54,146.368 1502.54,147.501 1504.54,148.645 1506.54,149.8 1508.54,150.966 1510.54,152.143 1512.54,153.331 
  1514.54,154.529 1516.54,155.739 1518.54,156.959 1520.54,158.19 1522.55,159.433 1524.55,160.686 1526.55,161.95 1528.55,163.225 1530.55,164.51 1532.55,165.807 
  1534.55,167.114 1536.55,168.433 1538.55,169.762 1540.55,171.103 1542.55,172.454 1544.55,173.816 1546.55,175.189 1548.55,176.572 1550.55,177.967 1552.55,179.373 
  1554.56,180.789 1556.56,182.217 1558.56,183.655 1560.56,185.104 1562.56,186.564 1564.56,188.035 1566.56,189.517 1568.56,191.01 1570.56,192.513 1572.56,194.028 
  1574.56,195.553 1576.56,197.09 1578.56,198.637 1580.56,200.195 1582.56,201.764 1584.57,203.344 1586.57,204.935 1588.57,206.537 1590.57,208.149 1592.57,209.773 
  1594.57,211.407 1596.57,213.052 1598.57,214.709 1600.57,216.376 1602.57,218.054 1604.57,219.742 1606.57,221.442 1608.57,223.153 1610.57,224.874 1612.57,226.607 
  1614.58,228.35 1616.58,230.104 1618.58,231.869 1620.58,233.645 1622.58,235.432 1624.58,237.23 1626.58,239.039 1628.58,240.858 1630.58,242.689 1632.58,244.53 
  1634.58,246.382 1636.58,248.246 1638.58,250.12 1640.58,252.005 1642.58,253.9 1644.58,255.807 1646.59,257.725 1648.59,259.653 1650.59,261.593 1652.59,263.543 
  1654.59,265.504 1656.59,267.476 1658.59,269.459 1660.59,271.453 1662.59,273.458 1664.59,275.473 1666.59,277.5 1668.59,279.537 1670.59,281.586 1672.59,283.645 
  1674.59,285.715 1676.6,287.796 1678.6,289.888 1680.6,291.991 1682.6,294.104 1684.6,296.229 1686.6,298.365 1688.6,300.511 1690.6,302.668 1692.6,304.836 
  1694.6,307.015 1696.6,309.205 1698.6,311.406 1700.6,313.618 1702.6,315.84 1704.6,318.074 1706.61,320.318 1708.61,322.573 1710.61,324.84 1712.61,327.117 
  1714.61,329.405 1716.61,331.703 1718.61,334.013 1720.61,336.334 1722.61,338.665 1724.61,341.008 1726.61,343.361 1728.61,345.725 1730.61,348.1 1732.61,350.486 
  1734.61,352.883 1736.61,355.291 1738.62,357.709 1740.62,360.139 1742.62,362.579 1744.62,365.031 1746.62,367.493 1748.62,369.966 1750.62,372.45 1752.62,374.945 
  1754.62,377.451 1756.62,379.967 1758.62,382.495 1760.62,385.033 1762.62,387.582 1764.62,390.143 1766.62,392.714 1768.63,395.296 1770.63,397.889 1772.63,400.492 
  1774.63,403.107 1776.63,405.733 1778.63,408.369 1780.63,411.016 1782.63,413.675 1784.63,416.344 1786.63,419.024 1788.63,421.714 1790.63,424.416 1792.63,427.129 
  1794.63,429.852 1796.63,432.587 1798.64,435.332 1800.64,438.088 1802.64,440.855 1804.64,443.633 1806.64,446.422 1808.64,449.222 1810.64,452.033 1812.64,454.854 
  1814.64,457.687 1816.64,460.53 1818.64,463.384 1820.64,466.249 1822.64,469.125 1824.64,472.012 1826.64,474.91 1828.64,477.819 1830.65,480.738 1832.65,483.668 
  1834.65,486.61 1836.65,489.562 1838.65,492.525 1840.65,495.499 1842.65,498.484 1844.65,501.48 1846.65,504.486 1848.65,507.504 1850.65,510.532 1852.65,513.571 
  1854.65,516.622 1856.65,519.683 1858.65,522.755 1860.66,525.837 1862.66,528.931 1864.66,532.036 1866.66,535.151 1868.66,538.278 1870.66,541.415 1872.66,544.563 
  1874.66,547.722 1876.66,550.892 1878.66,554.073 1880.66,557.264 1882.66,560.467 1884.66,563.681 1886.66,566.905 1888.66,570.14 1890.67,573.386 1892.67,576.643 
  1894.67,579.911 1896.67,583.19 1898.67,586.48 1900.67,589.78 1902.67,593.092 1904.67,596.414 1906.67,599.747 1908.67,603.091 1910.67,606.446 1912.67,609.812 
  1914.67,613.189 1916.67,616.576 1918.67,619.975 1920.67,623.384 1922.68,626.804 1924.68,630.236 1926.68,633.678 1928.68,637.131 1930.68,640.594 1932.68,644.069 
  1934.68,647.555 1936.68,651.051 1938.68,654.558 1940.68,658.077 1942.68,661.606 1944.68,665.146 1946.68,668.697 1948.68,672.258 1950.68,675.831 1952.69,679.415 
  1954.69,683.009 1956.69,686.614 1958.69,690.23 1960.69,693.858 1962.69,697.495 1964.69,701.144 1966.69,704.804 1968.69,708.475 1970.69,712.156 1972.69,715.848 
  1974.69,719.552 1976.69,723.266 1978.69,726.991 1980.69,730.727 1982.7,734.473 1984.7,738.231 1986.7,741.999 1988.7,745.779 1990.7,749.569 1992.7,753.37 
  1994.7,757.182 1996.7,761.005 1998.7,764.839 2000.7,768.684 2002.7,772.539 2004.7,776.406 2006.7,780.283 2008.7,784.171 2010.7,788.07 2012.71,791.98 
  2014.71,795.901 2016.71,799.833 2018.71,803.776 2020.71,807.729 2022.71,811.693 2024.71,815.669 2026.71,819.655 2028.71,823.652 2030.71,827.66 2032.71,831.678 
  2034.71,835.708 2036.71,839.749 2038.71,843.8 2040.71,847.862 2042.71,851.935 2044.72,856.019 2046.72,860.114 2048.72,864.22 2050.72,868.337 2052.72,872.464 
  2054.72,876.603 2056.72,880.752 2058.72,884.912 2060.72,889.083 2062.72,893.265 2064.72,897.458 2066.72,901.662 2068.72,905.876 2070.72,910.102 2072.72,914.338 
  2074.73,918.585 2076.73,922.843 2078.73,927.112 2080.73,931.392 2082.73,935.683 2084.73,939.984 2086.73,944.297 2088.73,948.62 2090.73,952.954 2092.73,957.299 
  2094.73,961.655 2096.73,966.022 2098.73,970.4 2100.73,974.789 2102.73,979.188 2104.74,983.598 2106.74,988.02 2108.74,992.452 2110.74,996.895 2112.74,1001.35 
  2114.74,1005.81 2116.74,1010.29 2118.74,1014.78 2120.74,1019.27 2122.74,1023.78 2124.74,1028.3 2126.74,1032.83 2128.74,1037.37 2130.74,1041.92 2132.74,1046.49 
  2134.74,1051.06 2136.75,1055.64 2138.75,1060.24 2140.75,1064.84 2142.75,1069.46 2144.75,1074.09 2146.75,1078.73 2148.75,1083.38 2150.75,1088.04 2152.75,1092.71 
  2154.75,1097.39 2156.75,1102.08 2158.75,1106.79 2160.75,1111.5 2162.75,1116.23 2164.75,1120.97 2166.76,1125.71 2168.76,1130.47 2170.76,1135.24 2172.76,1140.02 
  2174.76,1144.81 2176.76,1149.61 2178.76,1154.43 2180.76,1159.25 2182.76,1164.08 2184.76,1168.93 2186.76,1173.78 2188.76,1178.65 2190.76,1183.53 2192.76,1188.42 
  2194.76,1193.32 2196.77,1198.23 2198.77,1203.15 2200.77,1208.08 2202.77,1213.03 2204.77,1217.98 2206.77,1222.94 2208.77,1227.92 2210.77,1232.91 2212.77,1237.9 
  2214.77,1242.91 2216.77,1247.93 2218.77,1252.96 2220.77,1258 2222.77,1263.05 2224.77,1268.12 2226.77,1273.19 2228.78,1278.27 2230.78,1283.37 2232.78,1288.48 
  2234.78,1293.59 2236.78,1298.72 2238.78,1303.86 2240.78,1309.01 2242.78,1314.17 2244.78,1319.34 2246.78,1324.52 2248.78,1329.72 2250.78,1334.92 2252.78,1340.14 
  2254.78,1345.36 2256.78,1350.6 2258.79,1355.84 2260.79,1361.1 2262.79,1366.37 2264.79,1371.65 2266.79,1376.94 2268.79,1382.25 2270.79,1387.56 2272.79,1392.88 
  2274.79,1398.22 2276.79,1403.56 2278.79,1408.92 2280.79,1414.28 2282.79,1419.66 2284.79,1425.05 2286.79,1430.45 2288.8,1435.86 2290.8,1441.28 2292.8,1446.71 
  
  "/>
<polygon clip-path="url(#clip1200)" points="
1989.93,251.724 2280.76,251.724 2280.76,130.764 1989.93,130.764 
  " fill="#ffffff" fill-rule="evenodd" fill-opacity="1"/>
<polyline clip-path="url(#clip1200)" style="stroke:#000000; stroke-width:4; stroke-opacity:1; fill:none" points="
  1989.93,251.724 2280.76,251.724 2280.76,130.764 1989.93,130.764 1989.93,251.724 
  "/>
<polyline clip-path="url(#clip1200)" style="stroke:#009af9; stroke-width:4; stroke-opacity:1; fill:none" points="
  2013.93,191.244 2157.93,191.244 
  "/>
<g clip-path="url(#clip1200)">
<text style="fill:#000000; fill-opacity:1; font-family:Arial,Helvetica Neue,Helvetica,sans-serif; font-size:48px; text-anchor:start;" transform="rotate(0, 2181.93, 208.744)" x="2181.93" y="208.744">y1</text>
</g>
</svg>
