<?xml version="1.0" encoding="utf-8"?>
<svg xmlns="http://www.w3.org/2000/svg" xmlns:xlink="http://www.w3.org/1999/xlink" width="600" height="400" viewBox="0 0 2400 1600">
<defs>
  <clipPath id="clip1600">
    <rect x="0" y="0" width="2400" height="1600"/>
  </clipPath>
</defs>
<polygon clip-path="url(#clip1600)" points="
0,1600 2400,1600 2400,0 0,0 
  " fill="#ffffff" fill-rule="evenodd" fill-opacity="1"/>
<defs>
  <clipPath id="clip1601">
    <rect x="480" y="0" width="1681" height="1600"/>
  </clipPath>
</defs>
<polygon clip-path="url(#clip1600)" points="
207.423,1487.47 2352.76,1487.47 2352.76,47.2441 207.423,47.2441 
  " fill="#ffffff" fill-rule="evenodd" fill-opacity="1"/>
<defs>
  <clipPath id="clip1602">
    <rect x="207" y="47" width="2146" height="1441"/>
  </clipPath>
</defs>
<polyline clip-path="url(#clip1602)" style="stroke:#000000; stroke-width:2; stroke-opacity:0.1; fill:none" points="
  268.14,1487.47 268.14,47.2441 
  "/>
<polyline clip-path="url(#clip1602)" style="stroke:#000000; stroke-width:2; stroke-opacity:0.1; fill:none" points="
  568.513,1487.47 568.513,47.2441 
  "/>
<polyline clip-path="url(#clip1602)" style="stroke:#000000; stroke-width:2; stroke-opacity:0.1; fill:none" points="
  868.886,1487.47 868.886,47.2441 
  "/>
<polyline clip-path="url(#clip1602)" style="stroke:#000000; stroke-width:2; stroke-opacity:0.1; fill:none" points="
  1169.26,1487.47 1169.26,47.2441 
  "/>
<polyline clip-path="url(#clip1602)" style="stroke:#000000; stroke-width:2; stroke-opacity:0.1; fill:none" points="
  1469.63,1487.47 1469.63,47.2441 
  "/>
<polyline clip-path="url(#clip1602)" style="stroke:#000000; stroke-width:2; stroke-opacity:0.1; fill:none" points="
  1770.01,1487.47 1770.01,47.2441 
  "/>
<polyline clip-path="url(#clip1602)" style="stroke:#000000; stroke-width:2; stroke-opacity:0.1; fill:none" points="
  2070.38,1487.47 2070.38,47.2441 
  "/>
<polyline clip-path="url(#clip1602)" style="stroke:#000000; stroke-width:2; stroke-opacity:0.1; fill:none" points="
  207.423,1446.71 2352.76,1446.71 
  "/>
<polyline clip-path="url(#clip1602)" style="stroke:#000000; stroke-width:2; stroke-opacity:0.1; fill:none" points="
  207.423,1245.06 2352.76,1245.06 
  "/>
<polyline clip-path="url(#clip1602)" style="stroke:#000000; stroke-width:2; stroke-opacity:0.1; fill:none" points="
  207.423,1043.41 2352.76,1043.41 
  "/>
<polyline clip-path="url(#clip1602)" style="stroke:#000000; stroke-width:2; stroke-opacity:0.1; fill:none" points="
  207.423,841.764 2352.76,841.764 
  "/>
<polyline clip-path="url(#clip1602)" style="stroke:#000000; stroke-width:2; stroke-opacity:0.1; fill:none" points="
  207.423,640.113 2352.76,640.113 
  "/>
<polyline clip-path="url(#clip1602)" style="stroke:#000000; stroke-width:2; stroke-opacity:0.1; fill:none" points="
  207.423,438.463 2352.76,438.463 
  "/>
<polyline clip-path="url(#clip1602)" style="stroke:#000000; stroke-width:2; stroke-opacity:0.1; fill:none" points="
  207.423,236.813 2352.76,236.813 
  "/>
<polyline clip-path="url(#clip1600)" style="stroke:#000000; stroke-width:4; stroke-opacity:1; fill:none" points="
  207.423,1487.47 2352.76,1487.47 
  "/>
<polyline clip-path="url(#clip1600)" style="stroke:#000000; stroke-width:4; stroke-opacity:1; fill:none" points="
  207.423,1487.47 207.423,47.2441 
  "/>
<polyline clip-path="url(#clip1600)" style="stroke:#000000; stroke-width:4; stroke-opacity:1; fill:none" points="
  268.14,1487.47 268.14,1465.87 
  "/>
<polyline clip-path="url(#clip1600)" style="stroke:#000000; stroke-width:4; stroke-opacity:1; fill:none" points="
  568.513,1487.47 568.513,1465.87 
  "/>
<polyline clip-path="url(#clip1600)" style="stroke:#000000; stroke-width:4; stroke-opacity:1; fill:none" points="
  868.886,1487.47 868.886,1465.87 
  "/>
<polyline clip-path="url(#clip1600)" style="stroke:#000000; stroke-width:4; stroke-opacity:1; fill:none" points="
  1169.26,1487.47 1169.26,1465.87 
  "/>
<polyline clip-path="url(#clip1600)" style="stroke:#000000; stroke-width:4; stroke-opacity:1; fill:none" points="
  1469.63,1487.47 1469.63,1465.87 
  "/>
<polyline clip-path="url(#clip1600)" style="stroke:#000000; stroke-width:4; stroke-opacity:1; fill:none" points="
  1770.01,1487.47 1770.01,1465.87 
  "/>
<polyline clip-path="url(#clip1600)" style="stroke:#000000; stroke-width:4; stroke-opacity:1; fill:none" points="
  2070.38,1487.47 2070.38,1465.87 
  "/>
<polyline clip-path="url(#clip1600)" style="stroke:#000000; stroke-width:4; stroke-opacity:1; fill:none" points="
  207.423,1446.71 239.603,1446.71 
  "/>
<polyline clip-path="url(#clip1600)" style="stroke:#000000; stroke-width:4; stroke-opacity:1; fill:none" points="
  207.423,1245.06 239.603,1245.06 
  "/>
<polyline clip-path="url(#clip1600)" style="stroke:#000000; stroke-width:4; stroke-opacity:1; fill:none" points="
  207.423,1043.41 239.603,1043.41 
  "/>
<polyline clip-path="url(#clip1600)" style="stroke:#000000; stroke-width:4; stroke-opacity:1; fill:none" points="
  207.423,841.764 239.603,841.764 
  "/>
<polyline clip-path="url(#clip1600)" style="stroke:#000000; stroke-width:4; stroke-opacity:1; fill:none" points="
  207.423,640.113 239.603,640.113 
  "/>
<polyline clip-path="url(#clip1600)" style="stroke:#000000; stroke-width:4; stroke-opacity:1; fill:none" points="
  207.423,438.463 239.603,438.463 
  "/>
<polyline clip-path="url(#clip1600)" style="stroke:#000000; stroke-width:4; stroke-opacity:1; fill:none" points="
  207.423,236.813 239.603,236.813 
  "/>
<g clip-path="url(#clip1600)">
<text style="fill:#000000; fill-opacity:1; font-family:Arial,Helvetica Neue,Helvetica,sans-serif; font-size:48px; text-anchor:middle;" transform="rotate(0, 268.14, 1541.47)" x="268.14" y="1541.47">0.000</text>
</g>
<g clip-path="url(#clip1600)">
<text style="fill:#000000; fill-opacity:1; font-family:Arial,Helvetica Neue,Helvetica,sans-serif; font-size:48px; text-anchor:middle;" transform="rotate(0, 568.513, 1541.47)" x="568.513" y="1541.47">0.001</text>
</g>
<g clip-path="url(#clip1600)">
<text style="fill:#000000; fill-opacity:1; font-family:Arial,Helvetica Neue,Helvetica,sans-serif; font-size:48px; text-anchor:middle;" transform="rotate(0, 868.886, 1541.47)" x="868.886" y="1541.47">0.002</text>
</g>
<g clip-path="url(#clip1600)">
<text style="fill:#000000; fill-opacity:1; font-family:Arial,Helvetica Neue,Helvetica,sans-serif; font-size:48px; text-anchor:middle;" transform="rotate(0, 1169.26, 1541.47)" x="1169.26" y="1541.47">0.003</text>
</g>
<g clip-path="url(#clip1600)">
<text style="fill:#000000; fill-opacity:1; font-family:Arial,Helvetica Neue,Helvetica,sans-serif; font-size:48px; text-anchor:middle;" transform="rotate(0, 1469.63, 1541.47)" x="1469.63" y="1541.47">0.004</text>
</g>
<g clip-path="url(#clip1600)">
<text style="fill:#000000; fill-opacity:1; font-family:Arial,Helvetica Neue,Helvetica,sans-serif; font-size:48px; text-anchor:middle;" transform="rotate(0, 1770.01, 1541.47)" x="1770.01" y="1541.47">0.005</text>
</g>
<g clip-path="url(#clip1600)">
<text style="fill:#000000; fill-opacity:1; font-family:Arial,Helvetica Neue,Helvetica,sans-serif; font-size:48px; text-anchor:middle;" transform="rotate(0, 2070.38, 1541.47)" x="2070.38" y="1541.47">0.006</text>
</g>
<g clip-path="url(#clip1600)">
<text style="fill:#000000; fill-opacity:1; font-family:Arial,Helvetica Neue,Helvetica,sans-serif; font-size:48px; text-anchor:end;" transform="rotate(0, 183.423, 1464.21)" x="183.423" y="1464.21">0.000</text>
</g>
<g clip-path="url(#clip1600)">
<text style="fill:#000000; fill-opacity:1; font-family:Arial,Helvetica Neue,Helvetica,sans-serif; font-size:48px; text-anchor:end;" transform="rotate(0, 183.423, 1262.56)" x="183.423" y="1262.56">0.001</text>
</g>
<g clip-path="url(#clip1600)">
<text style="fill:#000000; fill-opacity:1; font-family:Arial,Helvetica Neue,Helvetica,sans-serif; font-size:48px; text-anchor:end;" transform="rotate(0, 183.423, 1060.91)" x="183.423" y="1060.91">0.002</text>
</g>
<g clip-path="url(#clip1600)">
<text style="fill:#000000; fill-opacity:1; font-family:Arial,Helvetica Neue,Helvetica,sans-serif; font-size:48px; text-anchor:end;" transform="rotate(0, 183.423, 859.264)" x="183.423" y="859.264">0.003</text>
</g>
<g clip-path="url(#clip1600)">
<text style="fill:#000000; fill-opacity:1; font-family:Arial,Helvetica Neue,Helvetica,sans-serif; font-size:48px; text-anchor:end;" transform="rotate(0, 183.423, 657.613)" x="183.423" y="657.613">0.004</text>
</g>
<g clip-path="url(#clip1600)">
<text style="fill:#000000; fill-opacity:1; font-family:Arial,Helvetica Neue,Helvetica,sans-serif; font-size:48px; text-anchor:end;" transform="rotate(0, 183.423, 455.963)" x="183.423" y="455.963">0.005</text>
</g>
<g clip-path="url(#clip1600)">
<text style="fill:#000000; fill-opacity:1; font-family:Arial,Helvetica Neue,Helvetica,sans-serif; font-size:48px; text-anchor:end;" transform="rotate(0, 183.423, 254.313)" x="183.423" y="254.313">0.006</text>
</g>
<polyline clip-path="url(#clip1602)" style="stroke:#009af9; stroke-width:4; stroke-opacity:1; fill:none" points="
  2292.04,88.0053 2099.44,217.304 1925.17,334.298 1767.48,440.158 1624.8,535.945 1495.7,622.616 1378.88,701.039 1273.18,772 1177.54,836.207 1091,894.305 
  1012.69,946.874 941.837,994.44 877.726,1037.48 819.717,1076.42 767.227,1111.66 719.733,1143.55 676.758,1172.4 637.873,1198.5 602.688,1222.12 570.851,1243.49 
  542.045,1262.83 515.979,1280.33 492.394,1296.17 471.053,1310.49 451.744,1323.46 434.271,1335.19 418.462,1345.8 404.157,1355.4 391.213,1364.09 379.501,1371.95 
  368.904,1379.07 359.315,1385.51 350.638,1391.33 342.787,1396.6 335.684,1401.37 329.256,1405.69 323.44,1409.59 318.178,1413.12 313.416,1416.32 309.107,1419.21 
  305.209,1421.83 301.681,1424.2 298.489,1426.34 295.601,1428.28 292.988,1430.03 290.623,1431.62 288.484,1433.06 286.548,1434.36 284.796,1435.53 283.211,1436.6 
  281.777,1437.56 280.479,1438.43 279.305,1439.22 278.242,1439.93 277.281,1440.58 276.411,1441.16 275.624,1441.69 274.912,1442.17 274.267,1442.6 273.684,1442.99 
  273.156,1443.35 272.679,1443.67 272.247,1443.96 271.856,1444.22 271.502,1444.46 271.182,1444.67 270.893,1444.87 270.631,1445.04 270.394,1445.2 270.179,1445.35 
  269.985,1445.48 269.81,1445.59 269.651,1445.7 269.507,1445.8 269.377,1445.88 269.259,1445.96 269.152,1446.03 269.056,1446.1 268.969,1446.16 268.89,1446.21 
  268.819,1446.26 268.754,1446.3 268.696,1446.34 268.643,1446.38 268.595,1446.41 268.551,1446.44 268.512,1446.46 268.477,1446.49 268.445,1446.51 268.416,1446.53 
  268.389,1446.55 268.366,1446.56 268.344,1446.58 268.325,1446.59 268.307,1446.6 268.291,1446.61 268.277,1446.62 268.264,1446.63 268.252,1446.64 268.241,1446.65 
  268.232,1446.65 268.223,1446.66 268.215,1446.66 268.208,1446.67 268.201,1446.67 268.195,1446.68 268.19,1446.68 268.185,1446.69 268.181,1446.69 268.177,1446.69 
  268.173,1446.69 268.17,1446.69 268.167,1446.7 268.165,1446.7 268.162,1446.7 268.16,1446.7 268.158,1446.7 268.156,1446.71 268.155,1446.71 268.153,1446.7 
  268.152,1446.7 268.151,1446.71 268.15,1446.71 268.149,1446.71 268.148,1446.71 268.147,1446.71 268.146,1446.7 268.146,1446.71 268.145,1446.71 268.145,1446.71 
  268.144,1446.69 268.144,1446.69 268.143,1446.7 268.143,1446.69 268.143,1446.7 268.142,1446.69 268.142,1446.7 268.142,1446.67 268.142,1446.66 268.141,1446.7 
  268.141,1446.71 268.141,1446.71 268.141,1446.7 268.141,1446.67 268.141,1446.7 268.141,1446.69 268.141,1446.68 268.14,1446.7 268.14,1446.68 268.14,1446.67 
  268.14,1446.65 268.14,1446.57 268.14,1446.56 268.14,1446.68 268.14,1446.64 268.14,1446.63 268.14,1446.35 268.14,1446.61 268.14,1446.64 268.14,1446.53 
  268.14,1446.6 268.14,1446.33 268.14,1446.67 268.14,1446.46 268.14,1446.26 268.14,1446.28 268.14,1446.09 268.14,1446.22 268.14,1445.71 268.14,1446.49 
  268.14,1445.4 268.14,1445.51 268.14,1446 268.14,1446.11 268.14,1445.48 268.14,1445.46 268.14,1444.63 268.14,1444.54 268.14,1445.22 268.14,1444.45 
  268.14,1446.3 268.14,1445.73 268.14,1445.43 268.14,1444.8 268.14,1443.27 268.14,1444.45 268.14,1445.69 268.14,1439.74 268.14,1439.94 268.14,1443.06 
  268.14,1437.26 268.14,1445.06 268.14,1445.94 268.14,1444.21 268.14,1439.69 268.14,1436.65 268.14,1435.73 268.14,1437.74 268.14,1432.87 268.14,1438.59 
  268.14,1438.76 268.14,1435.53 268.14,1439.26 268.14,1427.28 268.14,1421.26 268.14,1437.9 268.14,1425.88 268.14,1442.2 268.14,1419.46 268.14,1386.24 
  268.14,1408.52 268.14,1425.71 268.14,1390.53 268.14,1414.85 268.14,1411.02 268.14,1434.19 268.14,1424.35 268.14,1444.02 268.14,1286.27 268.14,1394.05 
  268.14,1424.44 268.14,1334.01 268.14,1442.59 268.14,1177.6 268.14,1342.66 268.14,1356.63 268.14,1295.27 268.14,1199.99 268.14,1103.78 268.14,1410.44 
  268.14,1294.16 268.14,1427.17 268.14,1050.81 268.14,871.047 268.14,987.206 268.14,1109.01 268.14,284.098 268.14,923.622 268.14,1361.77 268.14,1001.18 
  268.14,1059.14 
  "/>
<polygon clip-path="url(#clip1600)" points="
1989.93,251.724 2280.76,251.724 2280.76,130.764 1989.93,130.764 
  " fill="#ffffff" fill-rule="evenodd" fill-opacity="1"/>
<polyline clip-path="url(#clip1600)" style="stroke:#000000; stroke-width:4; stroke-opacity:1; fill:none" points="
  1989.93,251.724 2280.76,251.724 2280.76,130.764 1989.93,130.764 1989.93,251.724 
  "/>
<polyline clip-path="url(#clip1600)" style="stroke:#009af9; stroke-width:4; stroke-opacity:1; fill:none" points="
  2013.93,191.244 2157.93,191.244 
  "/>
<g clip-path="url(#clip1600)">
<text style="fill:#000000; fill-opacity:1; font-family:Arial,Helvetica Neue,Helvetica,sans-serif; font-size:48px; text-anchor:start;" transform="rotate(0, 2181.93, 208.744)" x="2181.93" y="208.744">y1</text>
</g>
</svg>
