<?xml version="1.0" encoding="utf-8"?>
<svg xmlns="http://www.w3.org/2000/svg" xmlns:xlink="http://www.w3.org/1999/xlink" width="600" height="400" viewBox="0 0 2400 1600">
<defs>
  <clipPath id="clip030">
    <rect x="0" y="0" width="2400" height="1600"/>
  </clipPath>
</defs>
<path clip-path="url(#clip030)" d="
M0 1600 L2400 1600 L2400 0 L0 0  Z
  " fill="#ffffff" fill-rule="evenodd" fill-opacity="1"/>
<defs>
  <clipPath id="clip031">
    <rect x="480" y="0" width="1681" height="1600"/>
  </clipPath>
</defs>
<path clip-path="url(#clip030)" d="
M190.237 1423.18 L2352.76 1423.18 L2352.76 47.2441 L190.237 47.2441  Z
  " fill="#ffffff" fill-rule="evenodd" fill-opacity="1"/>
<defs>
  <clipPath id="clip032">
    <rect x="190" y="47" width="2164" height="1377"/>
  </clipPath>
</defs>
<polyline clip-path="url(#clip032)" style="stroke:#000000; stroke-width:2; stroke-opacity:0.1; fill:none" points="
  387.448,1423.18 387.448,47.2441 
  "/>
<polyline clip-path="url(#clip032)" style="stroke:#000000; stroke-width:2; stroke-opacity:0.1; fill:none" points="
  795.47,1423.18 795.47,47.2441 
  "/>
<polyline clip-path="url(#clip032)" style="stroke:#000000; stroke-width:2; stroke-opacity:0.1; fill:none" points="
  1203.49,1423.18 1203.49,47.2441 
  "/>
<polyline clip-path="url(#clip032)" style="stroke:#000000; stroke-width:2; stroke-opacity:0.1; fill:none" points="
  1611.52,1423.18 1611.52,47.2441 
  "/>
<polyline clip-path="url(#clip032)" style="stroke:#000000; stroke-width:2; stroke-opacity:0.1; fill:none" points="
  2019.54,1423.18 2019.54,47.2441 
  "/>
<polyline clip-path="url(#clip032)" style="stroke:#000000; stroke-width:2; stroke-opacity:0.1; fill:none" points="
  190.237,1166.46 2352.76,1166.46 
  "/>
<polyline clip-path="url(#clip032)" style="stroke:#000000; stroke-width:2; stroke-opacity:0.1; fill:none" points="
  190.237,848.644 2352.76,848.644 
  "/>
<polyline clip-path="url(#clip032)" style="stroke:#000000; stroke-width:2; stroke-opacity:0.1; fill:none" points="
  190.237,530.832 2352.76,530.832 
  "/>
<polyline clip-path="url(#clip032)" style="stroke:#000000; stroke-width:2; stroke-opacity:0.1; fill:none" points="
  190.237,213.021 2352.76,213.021 
  "/>
<polyline clip-path="url(#clip030)" style="stroke:#000000; stroke-width:4; stroke-opacity:1; fill:none" points="
  190.237,1423.18 2352.76,1423.18 
  "/>
<polyline clip-path="url(#clip030)" style="stroke:#000000; stroke-width:4; stroke-opacity:1; fill:none" points="
  190.237,1423.18 190.237,47.2441 
  "/>
<polyline clip-path="url(#clip030)" style="stroke:#000000; stroke-width:4; stroke-opacity:1; fill:none" points="
  387.448,1423.18 387.448,1406.67 
  "/>
<polyline clip-path="url(#clip030)" style="stroke:#000000; stroke-width:4; stroke-opacity:1; fill:none" points="
  795.47,1423.18 795.47,1406.67 
  "/>
<polyline clip-path="url(#clip030)" style="stroke:#000000; stroke-width:4; stroke-opacity:1; fill:none" points="
  1203.49,1423.18 1203.49,1406.67 
  "/>
<polyline clip-path="url(#clip030)" style="stroke:#000000; stroke-width:4; stroke-opacity:1; fill:none" points="
  1611.52,1423.18 1611.52,1406.67 
  "/>
<polyline clip-path="url(#clip030)" style="stroke:#000000; stroke-width:4; stroke-opacity:1; fill:none" points="
  2019.54,1423.18 2019.54,1406.67 
  "/>
<polyline clip-path="url(#clip030)" style="stroke:#000000; stroke-width:4; stroke-opacity:1; fill:none" points="
  190.237,1166.46 216.187,1166.46 
  "/>
<polyline clip-path="url(#clip030)" style="stroke:#000000; stroke-width:4; stroke-opacity:1; fill:none" points="
  190.237,848.644 216.187,848.644 
  "/>
<polyline clip-path="url(#clip030)" style="stroke:#000000; stroke-width:4; stroke-opacity:1; fill:none" points="
  190.237,530.832 216.187,530.832 
  "/>
<polyline clip-path="url(#clip030)" style="stroke:#000000; stroke-width:4; stroke-opacity:1; fill:none" points="
  190.237,213.021 216.187,213.021 
  "/>
<path clip-path="url(#clip030)" d="M 0 0 M355.307 1461.77 L367.783 1461.77 L367.783 1465.56 L355.307 1465.56 L355.307 1461.77 Z" fill="#000000" fill-rule="evenodd" fill-opacity="1" /><path clip-path="url(#clip030)" d="M 0 0 M373.663 1472.72 L381.302 1472.72 L381.302 1446.35 L372.992 1448.02 L372.992 1443.76 L381.256 1442.09 L385.931 1442.09 L385.931 1472.72 L393.57 1472.72 L393.57 1476.65 L373.663 1476.65 L373.663 1472.72 Z" fill="#000000" fill-rule="evenodd" fill-opacity="1" /><path clip-path="url(#clip030)" d="M 0 0 M398.686 1442.09 L417.042 1442.09 L417.042 1446.03 L402.968 1446.03 L402.968 1454.5 Q403.987 1454.15 405.005 1453.99 Q406.024 1453.8 407.042 1453.8 Q412.829 1453.8 416.209 1456.98 Q419.589 1460.15 419.589 1465.56 Q419.589 1471.14 416.116 1474.24 Q412.644 1477.32 406.325 1477.32 Q404.149 1477.32 401.88 1476.95 Q399.635 1476.58 397.228 1475.84 L397.228 1471.14 Q399.311 1472.28 401.533 1472.83 Q403.755 1473.39 406.232 1473.39 Q410.237 1473.39 412.575 1471.28 Q414.913 1469.18 414.913 1465.56 Q414.913 1461.95 412.575 1459.85 Q410.237 1457.74 406.232 1457.74 Q404.357 1457.74 402.482 1458.16 Q400.63 1458.57 398.686 1459.45 L398.686 1442.09 Z" fill="#000000" fill-rule="evenodd" fill-opacity="1" /><path clip-path="url(#clip030)" d="M 0 0 M763.63 1461.77 L776.107 1461.77 L776.107 1465.56 L763.63 1465.56 L763.63 1461.77 Z" fill="#000000" fill-rule="evenodd" fill-opacity="1" /><path clip-path="url(#clip030)" d="M 0 0 M781.986 1472.72 L789.625 1472.72 L789.625 1446.35 L781.315 1448.02 L781.315 1443.76 L789.579 1442.09 L794.255 1442.09 L794.255 1472.72 L801.894 1472.72 L801.894 1476.65 L781.986 1476.65 L781.986 1472.72 Z" fill="#000000" fill-rule="evenodd" fill-opacity="1" /><path clip-path="url(#clip030)" d="M 0 0 M810.991 1472.72 L827.31 1472.72 L827.31 1476.65 L805.366 1476.65 L805.366 1472.72 Q808.028 1469.96 812.611 1465.33 Q817.218 1460.68 818.398 1459.34 Q820.644 1456.81 821.523 1455.08 Q822.426 1453.32 822.426 1451.63 Q822.426 1448.87 820.482 1447.14 Q818.56 1445.4 815.458 1445.4 Q813.259 1445.4 810.806 1446.17 Q808.375 1446.93 805.597 1448.48 L805.597 1443.76 Q808.421 1442.62 810.875 1442.05 Q813.329 1441.47 815.366 1441.47 Q820.736 1441.47 823.931 1444.15 Q827.125 1446.84 827.125 1451.33 Q827.125 1453.46 826.315 1455.38 Q825.528 1457.28 823.421 1459.87 Q822.843 1460.54 819.741 1463.76 Q816.639 1466.95 810.991 1472.72 Z" fill="#000000" fill-rule="evenodd" fill-opacity="1" /><path clip-path="url(#clip030)" d="M 0 0 M1183.84 1461.77 L1196.32 1461.77 L1196.32 1465.56 L1183.84 1465.56 L1183.84 1461.77 Z" fill="#000000" fill-rule="evenodd" fill-opacity="1" /><path clip-path="url(#clip030)" d="M 0 0 M1201.53 1475.93 L1201.53 1471.68 Q1203.28 1472.51 1205.09 1472.95 Q1206.9 1473.39 1208.63 1473.39 Q1213.26 1473.39 1215.69 1470.29 Q1218.15 1467.16 1218.49 1460.82 Q1217.15 1462.81 1215.09 1463.87 Q1213.03 1464.94 1210.53 1464.94 Q1205.34 1464.94 1202.31 1461.81 Q1199.3 1458.67 1199.3 1453.23 Q1199.3 1447.9 1202.45 1444.68 Q1205.6 1441.47 1210.83 1441.47 Q1216.83 1441.47 1219.97 1446.07 Q1223.15 1450.66 1223.15 1459.41 Q1223.15 1467.58 1219.26 1472.46 Q1215.39 1477.32 1208.84 1477.32 Q1207.08 1477.32 1205.28 1476.98 Q1203.47 1476.63 1201.53 1475.93 M1210.83 1461.28 Q1213.98 1461.28 1215.81 1459.13 Q1217.66 1456.98 1217.66 1453.23 Q1217.66 1449.5 1215.81 1447.35 Q1213.98 1445.17 1210.83 1445.17 Q1207.68 1445.17 1205.83 1447.35 Q1204 1449.5 1204 1453.23 Q1204 1456.98 1205.83 1459.13 Q1207.68 1461.28 1210.83 1461.28 Z" fill="#000000" fill-rule="evenodd" fill-opacity="1" /><path clip-path="url(#clip030)" d="M 0 0 M1591.69 1461.77 L1604.17 1461.77 L1604.17 1465.56 L1591.69 1465.56 L1591.69 1461.77 Z" fill="#000000" fill-rule="evenodd" fill-opacity="1" /><path clip-path="url(#clip030)" d="M 0 0 M1619.81 1457.51 Q1616.67 1457.51 1614.81 1459.66 Q1612.98 1461.81 1612.98 1465.56 Q1612.98 1469.29 1614.81 1471.47 Q1616.67 1473.62 1619.81 1473.62 Q1622.96 1473.62 1624.79 1471.47 Q1626.64 1469.29 1626.64 1465.56 Q1626.64 1461.81 1624.79 1459.66 Q1622.96 1457.51 1619.81 1457.51 M1629.1 1442.86 L1629.1 1447.11 Q1627.34 1446.28 1625.53 1445.84 Q1623.75 1445.4 1621.99 1445.4 Q1617.36 1445.4 1614.91 1448.53 Q1612.48 1451.65 1612.13 1457.97 Q1613.49 1455.96 1615.55 1454.89 Q1617.61 1453.8 1620.09 1453.8 Q1625.3 1453.8 1628.31 1456.98 Q1631.34 1460.12 1631.34 1465.56 Q1631.34 1470.89 1628.19 1474.11 Q1625.05 1477.32 1619.81 1477.32 Q1613.82 1477.32 1610.65 1472.74 Q1607.48 1468.13 1607.48 1459.41 Q1607.48 1451.21 1611.36 1446.35 Q1615.25 1441.47 1621.8 1441.47 Q1623.56 1441.47 1625.35 1441.81 Q1627.15 1442.16 1629.1 1442.86 Z" fill="#000000" fill-rule="evenodd" fill-opacity="1" /><path clip-path="url(#clip030)" d="M 0 0 M2000.12 1461.77 L2012.59 1461.77 L2012.59 1465.56 L2000.12 1465.56 L2000.12 1461.77 Z" fill="#000000" fill-rule="evenodd" fill-opacity="1" /><path clip-path="url(#clip030)" d="M 0 0 M2031.83 1458.02 Q2035.19 1458.74 2037.06 1461 Q2038.96 1463.27 2038.96 1466.61 Q2038.96 1471.72 2035.44 1474.52 Q2031.92 1477.32 2025.44 1477.32 Q2023.26 1477.32 2020.95 1476.88 Q2018.66 1476.47 2016.2 1475.61 L2016.2 1471.1 Q2018.15 1472.23 2020.46 1472.81 Q2022.78 1473.39 2025.3 1473.39 Q2029.7 1473.39 2031.99 1471.65 Q2034.31 1469.92 2034.31 1466.61 Q2034.31 1463.55 2032.15 1461.84 Q2030.02 1460.1 2026.2 1460.1 L2022.18 1460.1 L2022.18 1456.26 L2026.39 1456.26 Q2029.84 1456.26 2031.67 1454.89 Q2033.5 1453.5 2033.5 1450.91 Q2033.5 1448.25 2031.6 1446.84 Q2029.72 1445.4 2026.2 1445.4 Q2024.28 1445.4 2022.08 1445.82 Q2019.88 1446.24 2017.25 1447.11 L2017.25 1442.95 Q2019.91 1442.21 2022.22 1441.84 Q2024.56 1441.47 2026.62 1441.47 Q2031.94 1441.47 2035.05 1443.9 Q2038.15 1446.3 2038.15 1450.43 Q2038.15 1453.3 2036.51 1455.29 Q2034.86 1457.25 2031.83 1458.02 Z" fill="#000000" fill-rule="evenodd" fill-opacity="1" /><path clip-path="url(#clip030)" d="M 0 0 M126.584 1168.85 L139.061 1168.85 L139.061 1172.65 L126.584 1172.65 L126.584 1168.85 Z" fill="#000000" fill-rule="evenodd" fill-opacity="1" /><path clip-path="url(#clip030)" d="M 0 0 M154.709 1164.59 Q151.561 1164.59 149.709 1166.74 Q147.88 1168.9 147.88 1172.65 Q147.88 1176.37 149.709 1178.55 Q151.561 1180.7 154.709 1180.7 Q157.857 1180.7 159.686 1178.55 Q161.538 1176.37 161.538 1172.65 Q161.538 1168.9 159.686 1166.74 Q157.857 1164.59 154.709 1164.59 M163.991 1149.94 L163.991 1154.2 Q162.232 1153.37 160.427 1152.93 Q158.644 1152.49 156.885 1152.49 Q152.255 1152.49 149.802 1155.61 Q147.371 1158.74 147.024 1165.05 Q148.39 1163.04 150.45 1161.98 Q152.51 1160.89 154.987 1160.89 Q160.195 1160.89 163.204 1164.06 Q166.237 1167.21 166.237 1172.65 Q166.237 1177.97 163.089 1181.19 Q159.941 1184.41 154.709 1184.41 Q148.714 1184.41 145.542 1179.82 Q142.371 1175.22 142.371 1166.49 Q142.371 1158.3 146.26 1153.43 Q150.149 1148.55 156.7 1148.55 Q158.459 1148.55 160.241 1148.9 Q162.047 1149.24 163.991 1149.94 Z" fill="#000000" fill-rule="evenodd" fill-opacity="1" /><path clip-path="url(#clip030)" d="M 0 0 M126.26 851.04 L138.737 851.04 L138.737 854.836 L126.26 854.836 L126.26 851.04 Z" fill="#000000" fill-rule="evenodd" fill-opacity="1" /><path clip-path="url(#clip030)" d="M 0 0 M156.654 835.438 L144.848 853.887 L156.654 853.887 L156.654 835.438 M155.427 831.364 L161.306 831.364 L161.306 853.887 L166.237 853.887 L166.237 857.776 L161.306 857.776 L161.306 865.924 L156.654 865.924 L156.654 857.776 L141.052 857.776 L141.052 853.262 L155.427 831.364 Z" fill="#000000" fill-rule="evenodd" fill-opacity="1" /><path clip-path="url(#clip030)" d="M 0 0 M128.343 533.228 L140.82 533.228 L140.82 537.025 L128.343 537.025 L128.343 533.228 Z" fill="#000000" fill-rule="evenodd" fill-opacity="1" /><path clip-path="url(#clip030)" d="M 0 0 M149.917 544.177 L166.237 544.177 L166.237 548.112 L144.292 548.112 L144.292 544.177 Q146.954 541.423 151.538 536.793 Q156.144 532.14 157.325 530.798 Q159.57 528.275 160.45 526.539 Q161.353 524.779 161.353 523.089 Q161.353 520.335 159.408 518.599 Q157.487 516.863 154.385 516.863 Q152.186 516.863 149.732 517.627 Q147.302 518.39 144.524 519.941 L144.524 515.219 Q147.348 514.085 149.802 513.506 Q152.255 512.927 154.292 512.927 Q159.663 512.927 162.857 515.613 Q166.052 518.298 166.052 522.789 Q166.052 524.918 165.241 526.839 Q164.454 528.738 162.348 531.33 Q161.769 532.001 158.667 535.219 Q155.566 538.413 149.917 544.177 Z" fill="#000000" fill-rule="evenodd" fill-opacity="1" /><path clip-path="url(#clip030)" d="M 0 0 M154.292 198.82 Q150.681 198.82 148.853 202.385 Q147.047 205.926 147.047 213.056 Q147.047 220.162 148.853 223.727 Q150.681 227.269 154.292 227.269 Q157.927 227.269 159.732 223.727 Q161.561 220.162 161.561 213.056 Q161.561 205.926 159.732 202.385 Q157.927 198.82 154.292 198.82 M154.292 195.116 Q160.103 195.116 163.158 199.722 Q166.237 204.306 166.237 213.056 Q166.237 221.783 163.158 226.389 Q160.103 230.972 154.292 230.972 Q148.482 230.972 145.404 226.389 Q142.348 221.783 142.348 213.056 Q142.348 204.306 145.404 199.722 Q148.482 195.116 154.292 195.116 Z" fill="#000000" fill-rule="evenodd" fill-opacity="1" /><path clip-path="url(#clip030)" d="M 0 0 M1158.47 1506.52 L1164.33 1506.52 L1164.33 1556.04 L1158.47 1556.04 L1158.47 1506.52 Z" fill="#000000" fill-rule="evenodd" fill-opacity="1" /><path clip-path="url(#clip030)" d="M 0 0 M1184.29 1524.5 Q1179.58 1524.5 1176.84 1528.19 Q1174.1 1531.85 1174.1 1538.25 Q1174.1 1544.65 1176.81 1548.34 Q1179.54 1552 1184.29 1552 Q1188.96 1552 1191.7 1548.31 Q1194.44 1544.62 1194.44 1538.25 Q1194.44 1531.92 1191.7 1528.23 Q1188.96 1524.5 1184.29 1524.5 M1184.29 1519.54 Q1191.93 1519.54 1196.29 1524.5 Q1200.65 1529.47 1200.65 1538.25 Q1200.65 1547 1196.29 1552 Q1191.93 1556.97 1184.29 1556.97 Q1176.62 1556.97 1172.25 1552 Q1167.93 1547 1167.93 1538.25 Q1167.93 1529.47 1172.25 1524.5 Q1176.62 1519.54 1184.29 1519.54 Z" fill="#000000" fill-rule="evenodd" fill-opacity="1" /><path clip-path="url(#clip030)" d="M 0 0 M1230.25 1537.81 Q1230.25 1531.44 1227.6 1527.94 Q1224.99 1524.44 1220.25 1524.44 Q1215.54 1524.44 1212.9 1527.94 Q1210.29 1531.44 1210.29 1537.81 Q1210.29 1544.14 1212.9 1547.64 Q1215.54 1551.14 1220.25 1551.14 Q1224.99 1551.14 1227.6 1547.64 Q1230.25 1544.14 1230.25 1537.81 M1236.1 1551.62 Q1236.1 1560.72 1232.06 1565.15 Q1228.02 1569.6 1219.68 1569.6 Q1216.59 1569.6 1213.85 1569.13 Q1211.12 1568.68 1208.54 1567.72 L1208.54 1562.03 Q1211.12 1563.43 1213.63 1564.1 Q1216.15 1564.76 1218.76 1564.76 Q1224.52 1564.76 1227.38 1561.74 Q1230.25 1558.75 1230.25 1552.67 L1230.25 1549.77 Q1228.43 1552.92 1225.6 1554.48 Q1222.77 1556.04 1218.82 1556.04 Q1212.26 1556.04 1208.25 1551.05 Q1204.24 1546.05 1204.24 1537.81 Q1204.24 1529.53 1208.25 1524.53 Q1212.26 1519.54 1218.82 1519.54 Q1222.77 1519.54 1225.6 1521.1 Q1228.43 1522.66 1230.25 1525.81 L1230.25 1520.4 L1236.1 1520.4 L1236.1 1551.62 Z" fill="#000000" fill-rule="evenodd" fill-opacity="1" /><path clip-path="url(#clip030)" d="M 0 0 M1244.19 1550.63 L1254.69 1550.63 L1254.69 1514.38 L1243.26 1516.67 L1243.26 1510.82 L1254.63 1508.52 L1261.06 1508.52 L1261.06 1550.63 L1271.56 1550.63 L1271.56 1556.04 L1244.19 1556.04 L1244.19 1550.63 Z" fill="#000000" fill-rule="evenodd" fill-opacity="1" /><path clip-path="url(#clip030)" d="M 0 0 M1292.28 1512.76 Q1287.32 1512.76 1284.8 1517.66 Q1282.32 1522.53 1282.32 1532.33 Q1282.32 1542.1 1284.8 1547 Q1287.32 1551.87 1292.28 1551.87 Q1297.28 1551.87 1299.76 1547 Q1302.27 1542.1 1302.27 1532.33 Q1302.27 1522.53 1299.76 1517.66 Q1297.28 1512.76 1292.28 1512.76 M1292.28 1507.66 Q1300.27 1507.66 1304.47 1514 Q1308.7 1520.3 1308.7 1532.33 Q1308.7 1544.33 1304.47 1550.66 Q1300.27 1556.97 1292.28 1556.97 Q1284.29 1556.97 1280.06 1550.66 Q1275.86 1544.33 1275.86 1532.33 Q1275.86 1520.3 1280.06 1514 Q1284.29 1507.66 1292.28 1507.66 Z" fill="#000000" fill-rule="evenodd" fill-opacity="1" /><path clip-path="url(#clip030)" d="M 0 0 M1328.92 1506.58 Q1324.65 1513.9 1322.58 1521.06 Q1320.51 1528.23 1320.51 1535.58 Q1320.51 1542.93 1322.58 1550.16 Q1324.68 1557.35 1328.92 1564.64 L1323.82 1564.64 Q1319.05 1557.16 1316.66 1549.93 Q1314.31 1542.71 1314.31 1535.58 Q1314.31 1528.48 1316.66 1521.29 Q1319.02 1514.09 1323.82 1506.58 L1328.92 1506.58 Z" fill="#000000" fill-rule="evenodd" fill-opacity="1" /><path clip-path="url(#clip030)" d="M 0 0 M1364.69 1534.53 L1364.69 1556.04 L1358.83 1556.04 L1358.83 1534.72 Q1358.83 1529.66 1356.86 1527.14 Q1354.89 1524.63 1350.94 1524.63 Q1346.2 1524.63 1343.46 1527.65 Q1340.72 1530.68 1340.72 1535.9 L1340.72 1556.04 L1334.84 1556.04 L1334.84 1506.52 L1340.72 1506.52 L1340.72 1525.93 Q1342.82 1522.72 1345.66 1521.13 Q1348.52 1519.54 1352.25 1519.54 Q1358.39 1519.54 1361.54 1523.36 Q1364.69 1527.14 1364.69 1534.53 Z" fill="#000000" fill-rule="evenodd" fill-opacity="1" /><path clip-path="url(#clip030)" d="M 0 0 M1369.91 1506.58 L1375 1506.58 Q1379.78 1514.09 1382.13 1521.29 Q1384.52 1528.48 1384.52 1535.58 Q1384.52 1542.71 1382.13 1549.93 Q1379.78 1557.16 1375 1564.64 L1369.91 1564.64 Q1374.14 1557.35 1376.21 1550.16 Q1378.31 1542.93 1378.31 1535.58 Q1378.31 1528.23 1376.21 1521.06 Q1374.14 1513.9 1369.91 1506.58 Z" fill="#000000" fill-rule="evenodd" fill-opacity="1" /><path clip-path="url(#clip030)" d="M 0 0 M38.479 905.924 L38.479 900.068 L88.0042 900.068 L88.0042 905.924 L38.479 905.924 Z" fill="#000000" fill-rule="evenodd" fill-opacity="1" /><path clip-path="url(#clip030)" d="M 0 0 M56.4621 880.111 Q56.4621 884.822 60.1542 887.559 Q63.8145 890.296 70.212 890.296 Q76.6095 890.296 80.3017 887.591 Q83.9619 884.854 83.9619 880.111 Q83.9619 875.433 80.2698 872.695 Q76.5777 869.958 70.212 869.958 Q63.8781 869.958 60.186 872.695 Q56.4621 875.433 56.4621 880.111 M51.4968 880.111 Q51.4968 872.473 56.4621 868.112 Q61.4273 863.751 70.212 863.751 Q78.9649 863.751 83.9619 868.112 Q88.9272 872.473 88.9272 880.111 Q88.9272 887.782 83.9619 892.143 Q78.9649 896.471 70.212 896.471 Q61.4273 896.471 56.4621 892.143 Q51.4968 887.782 51.4968 880.111 Z" fill="#000000" fill-rule="evenodd" fill-opacity="1" /><path clip-path="url(#clip030)" d="M 0 0 M69.7664 834.151 Q63.4007 834.151 59.8996 836.793 Q56.3984 839.403 56.3984 844.145 Q56.3984 848.856 59.8996 851.498 Q63.4007 854.107 69.7664 854.107 Q76.1003 854.107 79.6014 851.498 Q83.1026 848.856 83.1026 844.145 Q83.1026 839.403 79.6014 836.793 Q76.1003 834.151 69.7664 834.151 M83.58 828.295 Q92.683 828.295 97.1071 832.337 Q101.563 836.379 101.563 844.718 Q101.563 847.805 101.086 850.543 Q100.64 853.28 99.6852 855.858 L93.9879 855.858 Q95.3884 853.28 96.0568 850.765 Q96.7252 848.251 96.7252 845.641 Q96.7252 839.88 93.7015 837.016 Q90.7096 834.151 84.6303 834.151 L81.7339 834.151 Q84.885 835.965 86.4446 838.798 Q88.0042 841.631 88.0042 845.577 Q88.0042 852.134 83.0071 856.144 Q78.01 860.155 69.7664 860.155 Q61.491 860.155 56.4939 856.144 Q51.4968 852.134 51.4968 845.577 Q51.4968 841.631 53.0564 838.798 Q54.616 835.965 57.7671 834.151 L52.3562 834.151 L52.3562 828.295 L83.58 828.295 Z" fill="#000000" fill-rule="evenodd" fill-opacity="1" /><path clip-path="url(#clip030)" d="M 0 0 M82.5933 820.21 L82.5933 809.707 L46.3406 809.707 L48.6323 821.133 L42.7758 821.133 L40.4842 809.77 L40.4842 803.341 L82.5933 803.341 L82.5933 792.838 L88.0042 792.838 L88.0042 820.21 L82.5933 820.21 Z" fill="#000000" fill-rule="evenodd" fill-opacity="1" /><path clip-path="url(#clip030)" d="M 0 0 M44.7174 772.117 Q44.7174 777.082 49.6189 779.597 Q54.4887 782.079 64.2919 782.079 Q74.0633 782.079 78.9649 779.597 Q83.8346 777.082 83.8346 772.117 Q83.8346 767.12 78.9649 764.637 Q74.0633 762.123 64.2919 762.123 Q54.4887 762.123 49.6189 764.637 Q44.7174 767.12 44.7174 772.117 M39.6248 772.117 Q39.6248 764.128 45.9587 759.927 Q52.2607 755.694 64.2919 755.694 Q76.2913 755.694 82.6251 759.927 Q88.9272 764.128 88.9272 772.117 Q88.9272 780.106 82.6251 784.339 Q76.2913 788.541 64.2919 788.541 Q52.2607 788.541 45.9587 784.339 Q39.6248 780.106 39.6248 772.117 Z" fill="#000000" fill-rule="evenodd" fill-opacity="1" /><path clip-path="url(#clip030)" d="M 0 0 M38.5426 735.483 Q45.8632 739.748 53.0246 741.816 Q60.186 743.885 67.5384 743.885 Q74.8908 743.885 82.1159 741.816 Q89.3091 739.716 96.5979 735.483 L96.5979 740.575 Q89.1182 745.349 81.8931 747.736 Q74.668 750.092 67.5384 750.092 Q60.4406 750.092 53.2474 747.736 Q46.0542 745.381 38.5426 740.575 L38.5426 735.483 Z" fill="#000000" fill-rule="evenodd" fill-opacity="1" /><path clip-path="url(#clip030)" d="M 0 0 M40.4842 729.085 L40.4842 699.039 L45.895 699.039 L45.895 722.656 L59.9632 722.656 L59.9632 700.026 L65.3741 700.026 L65.3741 722.656 L82.5933 722.656 L82.5933 698.466 L88.0042 698.466 L88.0042 729.085 L40.4842 729.085 Z" fill="#000000" fill-rule="evenodd" fill-opacity="1" /><path clip-path="url(#clip030)" d="M 0 0 M57.8307 671.666 Q57.2578 672.653 57.0032 673.831 Q56.7167 674.976 56.7167 676.377 Q56.7167 681.342 59.9632 684.016 Q63.1779 686.658 69.2253 686.658 L88.0042 686.658 L88.0042 692.546 L52.3562 692.546 L52.3562 686.658 L57.8944 686.658 Q54.6479 684.811 53.0883 681.851 Q51.4968 678.891 51.4968 674.658 Q51.4968 674.053 51.5923 673.321 Q51.656 672.589 51.8151 671.698 L57.8307 671.666 Z" fill="#000000" fill-rule="evenodd" fill-opacity="1" /><path clip-path="url(#clip030)" d="M 0 0 M57.8307 646.013 Q57.2578 646.999 57.0032 648.177 Q56.7167 649.323 56.7167 650.723 Q56.7167 655.688 59.9632 658.362 Q63.1779 661.004 69.2253 661.004 L88.0042 661.004 L88.0042 666.892 L52.3562 666.892 L52.3562 661.004 L57.8944 661.004 Q54.6479 659.158 53.0883 656.198 Q51.4968 653.238 51.4968 649.004 Q51.4968 648.4 51.5923 647.668 Q51.656 646.936 51.8151 646.044 L57.8307 646.013 Z" fill="#000000" fill-rule="evenodd" fill-opacity="1" /><path clip-path="url(#clip030)" d="M 0 0 M56.4621 627.488 Q56.4621 632.199 60.1542 634.936 Q63.8145 637.673 70.212 637.673 Q76.6095 637.673 80.3017 634.968 Q83.9619 632.231 83.9619 627.488 Q83.9619 622.81 80.2698 620.072 Q76.5777 617.335 70.212 617.335 Q63.8781 617.335 60.186 620.072 Q56.4621 622.81 56.4621 627.488 M51.4968 627.488 Q51.4968 619.849 56.4621 615.489 Q61.4273 611.128 70.212 611.128 Q78.9649 611.128 83.9619 615.489 Q88.9272 619.849 88.9272 627.488 Q88.9272 635.159 83.9619 639.519 Q78.9649 643.848 70.212 643.848 Q61.4273 643.848 56.4621 639.519 Q51.4968 635.159 51.4968 627.488 Z" fill="#000000" fill-rule="evenodd" fill-opacity="1" /><path clip-path="url(#clip030)" d="M 0 0 M57.8307 584.329 Q57.2578 585.315 57.0032 586.493 Q56.7167 587.639 56.7167 589.039 Q56.7167 594.005 59.9632 596.678 Q63.1779 599.32 69.2253 599.32 L88.0042 599.32 L88.0042 605.208 L52.3562 605.208 L52.3562 599.32 L57.8944 599.32 Q54.6479 597.474 53.0883 594.514 Q51.4968 591.554 51.4968 587.321 Q51.4968 586.716 51.5923 585.984 Q51.656 585.252 51.8151 584.361 L57.8307 584.329 Z" fill="#000000" fill-rule="evenodd" fill-opacity="1" /><path clip-path="url(#clip030)" d="M 0 0 M38.5426 579.109 L38.5426 574.016 Q46.0542 569.242 53.2474 566.887 Q60.4406 564.5 67.5384 564.5 Q74.668 564.5 81.8931 566.887 Q89.1182 569.242 96.5979 574.016 L96.5979 579.109 Q89.3091 574.876 82.1159 572.807 Q74.8908 570.706 67.5384 570.706 Q60.186 570.706 53.0246 572.807 Q45.8632 574.876 38.5426 579.109 Z" fill="#000000" fill-rule="evenodd" fill-opacity="1" /><polyline clip-path="url(#clip032)" style="stroke:#009af9; stroke-width:4; stroke-opacity:1; fill:none" points="
  2291.55,371.927 2155.55,530.832 2019.54,689.738 1883.53,848.644 1747.52,1007.55 1611.52,1166.45 1475.51,1328.25 1339.5,1384.24 1203.49,1270.87 1067.49,1118.74 
  931.478,924.054 795.47,797.059 659.463,514.633 523.455,364.291 387.448,216.263 251.44,86.1857 
  "/>
<path clip-path="url(#clip030)" d="
M1935.48 251.724 L2280.76 251.724 L2280.76 130.764 L1935.48 130.764  Z
  " fill="#ffffff" fill-rule="evenodd" fill-opacity="1"/>
<polyline clip-path="url(#clip030)" style="stroke:#000000; stroke-width:4; stroke-opacity:1; fill:none" points="
  1935.48,251.724 2280.76,251.724 2280.76,130.764 1935.48,130.764 1935.48,251.724 
  "/>
<polyline clip-path="url(#clip030)" style="stroke:#009af9; stroke-width:4; stroke-opacity:1; fill:none" points="
  1959.48,191.244 2103.48,191.244 
  "/>
<path clip-path="url(#clip030)" d="M 0 0 M2127.48 173.964 L2149.33 173.964 L2149.33 177.899 L2132.15 177.899 L2132.15 188.131 L2148.61 188.131 L2148.61 192.066 L2132.15 192.066 L2132.15 204.589 L2149.75 204.589 L2149.75 208.524 L2127.48 208.524 L2127.48 173.964 Z" fill="#000000" fill-rule="evenodd" fill-opacity="1" /><path clip-path="url(#clip030)" d="M 0 0 M2169.24 186.58 Q2168.52 186.163 2167.66 185.978 Q2166.83 185.77 2165.81 185.77 Q2162.2 185.77 2160.26 188.131 Q2158.34 190.469 2158.34 194.867 L2158.34 208.524 L2154.05 208.524 L2154.05 182.598 L2158.34 182.598 L2158.34 186.626 Q2159.68 184.265 2161.83 183.131 Q2163.98 181.973 2167.06 181.973 Q2167.5 181.973 2168.03 182.043 Q2168.57 182.089 2169.21 182.205 L2169.24 186.58 Z" fill="#000000" fill-rule="evenodd" fill-opacity="1" /><path clip-path="url(#clip030)" d="M 0 0 M2187.9 186.58 Q2187.18 186.163 2186.32 185.978 Q2185.49 185.77 2184.47 185.77 Q2180.86 185.77 2178.91 188.131 Q2176.99 190.469 2176.99 194.867 L2176.99 208.524 L2172.71 208.524 L2172.71 182.598 L2176.99 182.598 L2176.99 186.626 Q2178.33 184.265 2180.49 183.131 Q2182.64 181.973 2185.72 181.973 Q2186.16 181.973 2186.69 182.043 Q2187.22 182.089 2187.87 182.205 L2187.9 186.58 Z" fill="#000000" fill-rule="evenodd" fill-opacity="1" /><path clip-path="url(#clip030)" d="M 0 0 M2201.37 185.584 Q2197.94 185.584 2195.95 188.27 Q2193.96 190.932 2193.96 195.584 Q2193.96 200.237 2195.93 202.922 Q2197.92 205.584 2201.37 205.584 Q2204.77 205.584 2206.76 202.899 Q2208.75 200.214 2208.75 195.584 Q2208.75 190.978 2206.76 188.293 Q2204.77 185.584 2201.37 185.584 M2201.37 181.973 Q2206.92 181.973 2210.09 185.584 Q2213.27 189.195 2213.27 195.584 Q2213.27 201.95 2210.09 205.584 Q2206.92 209.195 2201.37 209.195 Q2195.79 209.195 2192.62 205.584 Q2189.47 201.95 2189.47 195.584 Q2189.47 189.195 2192.62 185.584 Q2195.79 181.973 2201.37 181.973 Z" fill="#000000" fill-rule="evenodd" fill-opacity="1" /><path clip-path="url(#clip030)" d="M 0 0 M2232.76 186.58 Q2232.04 186.163 2231.18 185.978 Q2230.35 185.77 2229.33 185.77 Q2225.72 185.77 2223.77 188.131 Q2221.85 190.469 2221.85 194.867 L2221.85 208.524 L2217.57 208.524 L2217.57 182.598 L2221.85 182.598 L2221.85 186.626 Q2223.2 184.265 2225.35 183.131 Q2227.5 181.973 2230.58 181.973 Q2231.02 181.973 2231.55 182.043 Q2232.08 182.089 2232.73 182.205 L2232.76 186.58 Z" fill="#000000" fill-rule="evenodd" fill-opacity="1" /></svg>
