<?xml version="1.0" encoding="utf-8"?>
<svg xmlns="http://www.w3.org/2000/svg" xmlns:xlink="http://www.w3.org/1999/xlink" width="600" height="400" viewBox="0 0 2400 1600">
<defs>
  <clipPath id="clip1800">
    <rect x="0" y="0" width="2400" height="1600"/>
  </clipPath>
</defs>
<path clip-path="url(#clip1800)" d="
M0 1600 L2400 1600 L2400 0 L0 0  Z
  " fill="#ffffff" fill-rule="evenodd" fill-opacity="1"/>
<defs>
  <clipPath id="clip1801">
    <rect x="480" y="0" width="1681" height="1600"/>
  </clipPath>
</defs>
<path clip-path="url(#clip1800)" d="
M153.898 1487.47 L2352.76 1487.47 L2352.76 47.2441 L153.898 47.2441  Z
  " fill="#ffffff" fill-rule="evenodd" fill-opacity="1"/>
<defs>
  <clipPath id="clip1802">
    <rect x="153" y="47" width="2200" height="1441"/>
  </clipPath>
</defs>
<polyline clip-path="url(#clip1802)" style="stroke:#000000; stroke-width:2; stroke-opacity:0.1; fill:none" points="
  446.618,1487.47 446.618,47.2441 
  "/>
<polyline clip-path="url(#clip1802)" style="stroke:#000000; stroke-width:2; stroke-opacity:0.1; fill:none" points="
  907.595,1487.47 907.595,47.2441 
  "/>
<polyline clip-path="url(#clip1802)" style="stroke:#000000; stroke-width:2; stroke-opacity:0.1; fill:none" points="
  1368.57,1487.47 1368.57,47.2441 
  "/>
<polyline clip-path="url(#clip1802)" style="stroke:#000000; stroke-width:2; stroke-opacity:0.1; fill:none" points="
  1829.55,1487.47 1829.55,47.2441 
  "/>
<polyline clip-path="url(#clip1802)" style="stroke:#000000; stroke-width:2; stroke-opacity:0.1; fill:none" points="
  2290.52,1487.47 2290.52,47.2441 
  "/>
<polyline clip-path="url(#clip1802)" style="stroke:#000000; stroke-width:2; stroke-opacity:0.1; fill:none" points="
  153.898,1461.99 2352.76,1461.99 
  "/>
<polyline clip-path="url(#clip1802)" style="stroke:#000000; stroke-width:2; stroke-opacity:0.1; fill:none" points="
  153.898,1162.62 2352.76,1162.62 
  "/>
<polyline clip-path="url(#clip1802)" style="stroke:#000000; stroke-width:2; stroke-opacity:0.1; fill:none" points="
  153.898,863.252 2352.76,863.252 
  "/>
<polyline clip-path="url(#clip1802)" style="stroke:#000000; stroke-width:2; stroke-opacity:0.1; fill:none" points="
  153.898,563.884 2352.76,563.884 
  "/>
<polyline clip-path="url(#clip1802)" style="stroke:#000000; stroke-width:2; stroke-opacity:0.1; fill:none" points="
  153.898,264.515 2352.76,264.515 
  "/>
<polyline clip-path="url(#clip1800)" style="stroke:#000000; stroke-width:4; stroke-opacity:1; fill:none" points="
  153.898,1487.47 2352.76,1487.47 
  "/>
<polyline clip-path="url(#clip1800)" style="stroke:#000000; stroke-width:4; stroke-opacity:1; fill:none" points="
  153.898,1487.47 153.898,47.2441 
  "/>
<polyline clip-path="url(#clip1800)" style="stroke:#000000; stroke-width:4; stroke-opacity:1; fill:none" points="
  446.618,1487.47 446.618,1465.87 
  "/>
<polyline clip-path="url(#clip1800)" style="stroke:#000000; stroke-width:4; stroke-opacity:1; fill:none" points="
  907.595,1487.47 907.595,1465.87 
  "/>
<polyline clip-path="url(#clip1800)" style="stroke:#000000; stroke-width:4; stroke-opacity:1; fill:none" points="
  1368.57,1487.47 1368.57,1465.87 
  "/>
<polyline clip-path="url(#clip1800)" style="stroke:#000000; stroke-width:4; stroke-opacity:1; fill:none" points="
  1829.55,1487.47 1829.55,1465.87 
  "/>
<polyline clip-path="url(#clip1800)" style="stroke:#000000; stroke-width:4; stroke-opacity:1; fill:none" points="
  2290.52,1487.47 2290.52,1465.87 
  "/>
<polyline clip-path="url(#clip1800)" style="stroke:#000000; stroke-width:4; stroke-opacity:1; fill:none" points="
  153.898,1461.99 186.881,1461.99 
  "/>
<polyline clip-path="url(#clip1800)" style="stroke:#000000; stroke-width:4; stroke-opacity:1; fill:none" points="
  153.898,1162.62 186.881,1162.62 
  "/>
<polyline clip-path="url(#clip1800)" style="stroke:#000000; stroke-width:4; stroke-opacity:1; fill:none" points="
  153.898,863.252 186.881,863.252 
  "/>
<polyline clip-path="url(#clip1800)" style="stroke:#000000; stroke-width:4; stroke-opacity:1; fill:none" points="
  153.898,563.884 186.881,563.884 
  "/>
<polyline clip-path="url(#clip1800)" style="stroke:#000000; stroke-width:4; stroke-opacity:1; fill:none" points="
  153.898,264.515 186.881,264.515 
  "/>
<g clip-path="url(#clip1800)">
<text style="fill:#000000; fill-opacity:1; font-family:Arial,Helvetica Neue,Helvetica,sans-serif; font-size:48px; text-anchor:middle;" transform="rotate(0, 446.618, 1541.47)" x="446.618" y="1541.47">2</text>
</g>
<g clip-path="url(#clip1800)">
<text style="fill:#000000; fill-opacity:1; font-family:Arial,Helvetica Neue,Helvetica,sans-serif; font-size:48px; text-anchor:middle;" transform="rotate(0, 907.595, 1541.47)" x="907.595" y="1541.47">4</text>
</g>
<g clip-path="url(#clip1800)">
<text style="fill:#000000; fill-opacity:1; font-family:Arial,Helvetica Neue,Helvetica,sans-serif; font-size:48px; text-anchor:middle;" transform="rotate(0, 1368.57, 1541.47)" x="1368.57" y="1541.47">6</text>
</g>
<g clip-path="url(#clip1800)">
<text style="fill:#000000; fill-opacity:1; font-family:Arial,Helvetica Neue,Helvetica,sans-serif; font-size:48px; text-anchor:middle;" transform="rotate(0, 1829.55, 1541.47)" x="1829.55" y="1541.47">8</text>
</g>
<g clip-path="url(#clip1800)">
<text style="fill:#000000; fill-opacity:1; font-family:Arial,Helvetica Neue,Helvetica,sans-serif; font-size:48px; text-anchor:middle;" transform="rotate(0, 2290.52, 1541.47)" x="2290.52" y="1541.47">10</text>
</g>
<g clip-path="url(#clip1800)">
<text style="fill:#000000; fill-opacity:1; font-family:Arial,Helvetica Neue,Helvetica,sans-serif; font-size:48px; text-anchor:end;" transform="rotate(0, 129.898, 1479.49)" x="129.898" y="1479.49">0.0</text>
</g>
<g clip-path="url(#clip1800)">
<text style="fill:#000000; fill-opacity:1; font-family:Arial,Helvetica Neue,Helvetica,sans-serif; font-size:48px; text-anchor:end;" transform="rotate(0, 129.898, 1180.12)" x="129.898" y="1180.12">0.2</text>
</g>
<g clip-path="url(#clip1800)">
<text style="fill:#000000; fill-opacity:1; font-family:Arial,Helvetica Neue,Helvetica,sans-serif; font-size:48px; text-anchor:end;" transform="rotate(0, 129.898, 880.752)" x="129.898" y="880.752">0.4</text>
</g>
<g clip-path="url(#clip1800)">
<text style="fill:#000000; fill-opacity:1; font-family:Arial,Helvetica Neue,Helvetica,sans-serif; font-size:48px; text-anchor:end;" transform="rotate(0, 129.898, 581.384)" x="129.898" y="581.384">0.6</text>
</g>
<g clip-path="url(#clip1800)">
<text style="fill:#000000; fill-opacity:1; font-family:Arial,Helvetica Neue,Helvetica,sans-serif; font-size:48px; text-anchor:end;" transform="rotate(0, 129.898, 282.015)" x="129.898" y="282.015">0.8</text>
</g>
<polyline clip-path="url(#clip1802)" style="stroke:#009af9; stroke-width:4; stroke-opacity:1; fill:none" points="
  216.13,416.706 446.618,328.897 677.106,1367.22 907.595,1367.17 1138.08,1257.04 1368.57,292.548 1599.06,1446.71 1829.55,934.8 2060.04,1137.01 2290.52,937.604 
  
  "/>
<polyline clip-path="url(#clip1802)" style="stroke:#e26f46; stroke-width:4; stroke-opacity:1; fill:none" points="
  216.13,476.408 446.618,1347.42 677.106,88.3026 907.595,362.791 1138.08,88.0053 1368.57,598.609 1599.06,1351.95 1829.55,577.027 2060.04,1340.95 2290.52,1279.61 
  
  "/>
<path clip-path="url(#clip1800)" d="
M1989.93 312.204 L2280.76 312.204 L2280.76 130.764 L1989.93 130.764  Z
  " fill="#ffffff" fill-rule="evenodd" fill-opacity="1"/>
<polyline clip-path="url(#clip1800)" style="stroke:#000000; stroke-width:4; stroke-opacity:1; fill:none" points="
  1989.93,312.204 2280.76,312.204 2280.76,130.764 1989.93,130.764 1989.93,312.204 
  "/>
<polyline clip-path="url(#clip1800)" style="stroke:#009af9; stroke-width:4; stroke-opacity:1; fill:none" points="
  2013.93,191.244 2157.93,191.244 
  "/>
<g clip-path="url(#clip1800)">
<text style="fill:#000000; fill-opacity:1; font-family:Arial,Helvetica Neue,Helvetica,sans-serif; font-size:48px; text-anchor:start;" transform="rotate(0, 2181.93, 208.744)" x="2181.93" y="208.744">y1</text>
</g>
<polyline clip-path="url(#clip1800)" style="stroke:#e26f46; stroke-width:4; stroke-opacity:1; fill:none" points="
  2013.93,251.724 2157.93,251.724 
  "/>
<g clip-path="url(#clip1800)">
<text style="fill:#000000; fill-opacity:1; font-family:Arial,Helvetica Neue,Helvetica,sans-serif; font-size:48px; text-anchor:start;" transform="rotate(0, 2181.93, 269.224)" x="2181.93" y="269.224">y2</text>
</g>
</svg>
