<?xml version="1.0" encoding="utf-8"?>
<svg xmlns="http://www.w3.org/2000/svg" xmlns:xlink="http://www.w3.org/1999/xlink" width="600" height="400" viewBox="0 0 2400 1600">
<defs>
  <clipPath id="clip0800">
    <rect x="0" y="0" width="2400" height="1600"/>
  </clipPath>
</defs>
<polygon clip-path="url(#clip0800)" points="
0,1600 2400,1600 2400,0 0,0 
  " fill="#ffffff" fill-rule="evenodd" fill-opacity="1"/>
<defs>
  <clipPath id="clip0801">
    <rect x="480" y="0" width="1681" height="1600"/>
  </clipPath>
</defs>
<polygon clip-path="url(#clip0800)" points="
153.898,1487.47 2352.76,1487.47 2352.76,47.2441 153.898,47.2441 
  " fill="#ffffff" fill-rule="evenodd" fill-opacity="1"/>
<defs>
  <clipPath id="clip0802">
    <rect x="153" y="47" width="2200" height="1441"/>
  </clipPath>
</defs>
<polyline clip-path="url(#clip0802)" style="stroke:#000000; stroke-width:2; stroke-opacity:0.1; fill:none" points="
  216.13,1487.47 216.13,47.2441 
  "/>
<polyline clip-path="url(#clip0802)" style="stroke:#000000; stroke-width:2; stroke-opacity:0.1; fill:none" points="
  734.728,1487.47 734.728,47.2441 
  "/>
<polyline clip-path="url(#clip0802)" style="stroke:#000000; stroke-width:2; stroke-opacity:0.1; fill:none" points="
  1253.33,1487.47 1253.33,47.2441 
  "/>
<polyline clip-path="url(#clip0802)" style="stroke:#000000; stroke-width:2; stroke-opacity:0.1; fill:none" points="
  1771.93,1487.47 1771.93,47.2441 
  "/>
<polyline clip-path="url(#clip0802)" style="stroke:#000000; stroke-width:2; stroke-opacity:0.1; fill:none" points="
  2290.52,1487.47 2290.52,47.2441 
  "/>
<polyline clip-path="url(#clip0802)" style="stroke:#000000; stroke-width:2; stroke-opacity:0.1; fill:none" points="
  153.898,1204.23 2352.76,1204.23 
  "/>
<polyline clip-path="url(#clip0802)" style="stroke:#000000; stroke-width:2; stroke-opacity:0.1; fill:none" points="
  153.898,869.341 2352.76,869.341 
  "/>
<polyline clip-path="url(#clip0802)" style="stroke:#000000; stroke-width:2; stroke-opacity:0.1; fill:none" points="
  153.898,534.451 2352.76,534.451 
  "/>
<polyline clip-path="url(#clip0802)" style="stroke:#000000; stroke-width:2; stroke-opacity:0.1; fill:none" points="
  153.898,199.561 2352.76,199.561 
  "/>
<polyline clip-path="url(#clip0800)" style="stroke:#000000; stroke-width:4; stroke-opacity:1; fill:none" points="
  153.898,1487.47 2352.76,1487.47 
  "/>
<polyline clip-path="url(#clip0800)" style="stroke:#000000; stroke-width:4; stroke-opacity:1; fill:none" points="
  153.898,1487.47 153.898,47.2441 
  "/>
<polyline clip-path="url(#clip0800)" style="stroke:#000000; stroke-width:4; stroke-opacity:1; fill:none" points="
  216.13,1487.47 216.13,1465.87 
  "/>
<polyline clip-path="url(#clip0800)" style="stroke:#000000; stroke-width:4; stroke-opacity:1; fill:none" points="
  734.728,1487.47 734.728,1465.87 
  "/>
<polyline clip-path="url(#clip0800)" style="stroke:#000000; stroke-width:4; stroke-opacity:1; fill:none" points="
  1253.33,1487.47 1253.33,1465.87 
  "/>
<polyline clip-path="url(#clip0800)" style="stroke:#000000; stroke-width:4; stroke-opacity:1; fill:none" points="
  1771.93,1487.47 1771.93,1465.87 
  "/>
<polyline clip-path="url(#clip0800)" style="stroke:#000000; stroke-width:4; stroke-opacity:1; fill:none" points="
  2290.52,1487.47 2290.52,1465.87 
  "/>
<polyline clip-path="url(#clip0800)" style="stroke:#000000; stroke-width:4; stroke-opacity:1; fill:none" points="
  153.898,1204.23 186.881,1204.23 
  "/>
<polyline clip-path="url(#clip0800)" style="stroke:#000000; stroke-width:4; stroke-opacity:1; fill:none" points="
  153.898,869.341 186.881,869.341 
  "/>
<polyline clip-path="url(#clip0800)" style="stroke:#000000; stroke-width:4; stroke-opacity:1; fill:none" points="
  153.898,534.451 186.881,534.451 
  "/>
<polyline clip-path="url(#clip0800)" style="stroke:#000000; stroke-width:4; stroke-opacity:1; fill:none" points="
  153.898,199.561 186.881,199.561 
  "/>
<g clip-path="url(#clip0800)">
<text style="fill:#000000; fill-opacity:1; font-family:Arial,Helvetica Neue,Helvetica,sans-serif; font-size:48px; text-anchor:middle;" transform="rotate(0, 216.13, 1541.47)" x="216.13" y="1541.47">-20</text>
</g>
<g clip-path="url(#clip0800)">
<text style="fill:#000000; fill-opacity:1; font-family:Arial,Helvetica Neue,Helvetica,sans-serif; font-size:48px; text-anchor:middle;" transform="rotate(0, 734.728, 1541.47)" x="734.728" y="1541.47">-10</text>
</g>
<g clip-path="url(#clip0800)">
<text style="fill:#000000; fill-opacity:1; font-family:Arial,Helvetica Neue,Helvetica,sans-serif; font-size:48px; text-anchor:middle;" transform="rotate(0, 1253.33, 1541.47)" x="1253.33" y="1541.47">0</text>
</g>
<g clip-path="url(#clip0800)">
<text style="fill:#000000; fill-opacity:1; font-family:Arial,Helvetica Neue,Helvetica,sans-serif; font-size:48px; text-anchor:middle;" transform="rotate(0, 1771.93, 1541.47)" x="1771.93" y="1541.47">10</text>
</g>
<g clip-path="url(#clip0800)">
<text style="fill:#000000; fill-opacity:1; font-family:Arial,Helvetica Neue,Helvetica,sans-serif; font-size:48px; text-anchor:middle;" transform="rotate(0, 2290.52, 1541.47)" x="2290.52" y="1541.47">20</text>
</g>
<g clip-path="url(#clip0800)">
<text style="fill:#000000; fill-opacity:1; font-family:Arial,Helvetica Neue,Helvetica,sans-serif; font-size:48px; text-anchor:end;" transform="rotate(0, 129.898, 1221.73)" x="129.898" y="1221.73">0.0</text>
</g>
<g clip-path="url(#clip0800)">
<text style="fill:#000000; fill-opacity:1; font-family:Arial,Helvetica Neue,Helvetica,sans-serif; font-size:48px; text-anchor:end;" transform="rotate(0, 129.898, 886.841)" x="129.898" y="886.841">0.3</text>
</g>
<g clip-path="url(#clip0800)">
<text style="fill:#000000; fill-opacity:1; font-family:Arial,Helvetica Neue,Helvetica,sans-serif; font-size:48px; text-anchor:end;" transform="rotate(0, 129.898, 551.951)" x="129.898" y="551.951">0.6</text>
</g>
<g clip-path="url(#clip0800)">
<text style="fill:#000000; fill-opacity:1; font-family:Arial,Helvetica Neue,Helvetica,sans-serif; font-size:48px; text-anchor:end;" transform="rotate(0, 129.898, 217.061)" x="129.898" y="217.061">0.9</text>
</g>
<polyline clip-path="url(#clip0802)" style="stroke:#009af9; stroke-width:4; stroke-opacity:1; fill:none" points="
  216.13,1153.27 218.206,1154.13 220.283,1155.06 222.359,1156.08 224.436,1157.18 226.512,1158.36 228.589,1159.62 230.665,1160.96 232.742,1162.37 234.818,1163.85 
  236.895,1165.41 238.971,1167.03 241.047,1168.72 243.124,1170.47 245.2,1172.29 247.277,1174.16 249.353,1176.09 251.43,1178.07 253.506,1180.11 255.583,1182.19 
  257.659,1184.31 259.736,1186.48 261.812,1188.68 263.889,1190.92 265.965,1193.19 268.042,1195.48 270.118,1197.8 272.195,1200.14 274.271,1202.5 276.347,1204.87 
  278.424,1207.24 280.5,1209.63 282.577,1212.01 284.653,1214.39 286.73,1216.77 288.806,1219.14 290.883,1221.49 292.959,1223.82 295.036,1226.14 297.112,1228.43 
  299.189,1230.68 301.265,1232.91 303.342,1235.1 305.418,1237.25 307.495,1239.36 309.571,1241.42 311.647,1243.43 313.724,1245.38 315.8,1247.28 317.877,1249.12 
  319.953,1250.89 322.03,1252.6 324.106,1254.23 326.183,1255.8 328.259,1257.28 330.336,1258.69 332.412,1260.02 334.489,1261.26 336.565,1262.42 338.642,1263.49 
  340.718,1264.47 342.795,1265.35 344.871,1266.15 346.947,1266.84 349.024,1267.44 351.1,1267.94 353.177,1268.34 355.253,1268.64 357.33,1268.84 359.406,1268.94 
  361.483,1268.93 363.559,1268.81 365.636,1268.6 367.712,1268.27 369.789,1267.85 371.865,1267.32 373.942,1266.68 376.018,1265.94 378.095,1265.1 380.171,1264.16 
  382.247,1263.12 384.324,1261.98 386.4,1260.74 388.477,1259.4 390.553,1257.97 392.63,1256.44 394.706,1254.82 396.783,1253.12 398.859,1251.32 400.936,1249.44 
  403.012,1247.48 405.089,1245.45 407.165,1243.33 409.242,1241.14 411.318,1238.89 413.395,1236.56 415.471,1234.17 417.547,1231.72 419.624,1229.22 421.7,1226.66 
  423.777,1224.05 425.853,1221.4 427.93,1218.71 430.006,1215.98 432.083,1213.22 434.159,1210.43 436.236,1207.62 438.312,1204.78 440.389,1201.93 442.465,1199.07 
  444.542,1196.2 446.618,1193.34 448.695,1190.47 450.771,1187.61 452.847,1184.76 454.924,1181.93 457,1179.12 459.077,1176.34 461.153,1173.59 463.23,1170.87 
  465.306,1168.19 467.383,1165.55 469.459,1162.97 471.536,1160.43 473.612,1157.95 475.689,1155.54 477.765,1153.19 479.842,1150.9 481.918,1148.7 483.995,1146.56 
  486.071,1144.51 488.147,1142.55 490.224,1140.67 492.3,1138.89 494.377,1137.2 496.453,1135.61 498.53,1134.12 500.606,1132.73 502.683,1131.45 504.759,1130.29 
  506.836,1129.23 508.912,1128.29 510.989,1127.47 513.065,1126.76 515.142,1126.18 517.218,1125.71 519.295,1125.37 521.371,1125.16 523.447,1125.07 525.524,1125.11 
  527.6,1125.28 529.677,1125.57 531.753,1125.99 533.83,1126.54 535.906,1127.22 537.983,1128.03 540.059,1128.96 542.136,1130.02 544.212,1131.21 546.289,1132.51 
  548.365,1133.95 550.442,1135.5 552.518,1137.17 554.595,1138.97 556.671,1140.87 558.747,1142.89 560.824,1145.02 562.9,1147.26 564.977,1149.61 567.053,1152.05 
  569.13,1154.6 571.206,1157.24 573.283,1159.97 575.359,1162.79 577.436,1165.7 579.512,1168.68 581.589,1171.74 583.665,1174.87 585.742,1178.07 587.818,1181.32 
  589.895,1184.64 591.971,1188.01 594.047,1191.43 596.124,1194.88 598.2,1198.38 600.277,1201.91 602.353,1205.46 604.43,1209.03 606.506,1212.62 608.583,1216.22 
  610.659,1219.82 612.736,1223.42 614.812,1227.02 616.889,1230.6 618.965,1234.16 621.042,1237.7 623.118,1241.2 625.195,1244.67 627.271,1248.1 629.347,1251.48 
  631.424,1254.81 633.5,1258.07 635.577,1261.28 637.653,1264.41 639.73,1267.47 641.806,1270.44 643.883,1273.33 645.959,1276.13 648.036,1278.83 650.112,1281.43 
  652.189,1283.93 654.265,1286.31 656.342,1288.58 658.418,1290.73 660.495,1292.75 662.571,1294.65 664.647,1296.41 666.724,1298.04 668.8,1299.53 670.877,1300.88 
  672.953,1302.08 675.03,1303.13 677.106,1304.03 679.183,1304.77 681.259,1305.36 683.336,1305.79 685.412,1306.07 687.489,1306.17 689.565,1306.12 691.642,1305.9 
  693.718,1305.52 695.795,1304.97 697.871,1304.25 699.947,1303.37 702.024,1302.32 704.1,1301.11 706.177,1299.73 708.253,1298.19 710.33,1296.48 712.406,1294.61 
  714.483,1292.59 716.559,1290.4 718.636,1288.06 720.712,1285.56 722.789,1282.92 724.865,1280.13 726.942,1277.19 729.018,1274.12 731.095,1270.9 733.171,1267.55 
  735.247,1264.08 737.324,1260.48 739.4,1256.76 741.477,1252.93 743.553,1248.98 745.63,1244.93 747.706,1240.79 749.783,1236.55 751.859,1232.22 753.936,1227.81 
  756.012,1223.33 758.089,1218.78 760.165,1214.17 762.242,1209.5 764.318,1204.78 766.395,1200.02 768.471,1195.23 770.547,1190.42 772.624,1185.58 774.7,1180.73 
  776.777,1175.88 778.853,1171.02 780.93,1166.19 783.006,1161.36 785.083,1156.57 787.159,1151.81 789.236,1147.09 791.312,1142.42 793.389,1137.81 795.465,1133.26 
  797.542,1128.79 799.618,1124.39 801.695,1120.09 803.771,1115.88 805.847,1111.77 807.924,1107.78 810,1103.9 812.077,1100.15 814.153,1096.53 816.23,1093.04 
  818.306,1089.71 820.383,1086.53 822.459,1083.5 824.536,1080.64 826.612,1077.95 828.689,1075.44 830.765,1073.12 832.842,1070.98 834.918,1069.03 836.995,1067.28 
  839.071,1065.74 841.147,1064.4 843.224,1063.27 845.3,1062.36 847.377,1061.67 849.453,1061.2 851.53,1060.96 853.606,1060.95 855.683,1061.16 857.759,1061.61 
  859.836,1062.3 861.912,1063.22 863.989,1064.38 866.065,1065.77 868.142,1067.4 870.218,1069.27 872.295,1071.38 874.371,1073.73 876.448,1076.31 878.524,1079.13 
  880.6,1082.18 882.677,1085.46 884.753,1088.97 886.83,1092.71 888.906,1096.66 890.983,1100.84 893.059,1105.23 895.136,1109.83 897.212,1114.64 899.289,1119.65 
  901.365,1124.85 903.442,1130.25 905.518,1135.83 907.595,1141.58 909.671,1147.51 911.748,1153.6 913.824,1159.84 915.9,1166.23 917.977,1172.77 920.053,1179.43 
  922.13,1186.22 924.206,1193.13 926.283,1200.14 928.359,1207.24 930.436,1214.44 932.512,1221.71 934.589,1229.04 936.665,1236.43 938.742,1243.87 940.818,1251.35 
  942.895,1258.84 944.971,1266.35 947.048,1273.86 949.124,1281.36 951.2,1288.84 953.277,1296.29 955.353,1303.69 957.43,1311.04 959.506,1318.31 961.583,1325.51 
  963.659,1332.61 965.736,1339.61 967.812,1346.49 969.889,1353.25 971.965,1359.86 974.042,1366.32 976.118,1372.61 978.195,1378.73 980.271,1384.66 982.348,1390.38 
  984.424,1395.9 986.5,1401.19 988.577,1406.25 990.653,1411.06 992.73,1415.61 994.806,1419.89 996.883,1423.9 998.959,1427.61 1001.04,1431.03 1003.11,1434.14 
  1005.19,1436.92 1007.27,1439.38 1009.34,1441.5 1011.42,1443.27 1013.49,1444.68 1015.57,1445.73 1017.65,1446.41 1019.72,1446.71 1021.8,1446.63 1023.88,1446.15 
  1025.95,1445.26 1028.03,1443.98 1030.11,1442.28 1032.18,1440.16 1034.26,1437.62 1036.34,1434.66 1038.41,1431.27 1040.49,1427.44 1042.57,1423.17 1044.64,1418.47 
  1046.72,1413.32 1048.79,1407.74 1050.87,1401.7 1052.95,1395.22 1055.02,1388.3 1057.1,1380.93 1059.18,1373.12 1061.25,1364.87 1063.33,1356.17 1065.41,1347.04 
  1067.48,1337.47 1069.56,1327.47 1071.64,1317.04 1073.71,1306.19 1075.79,1294.92 1077.87,1283.23 1079.94,1271.14 1082.02,1258.64 1084.09,1245.75 1086.17,1232.47 
  1088.25,1218.81 1090.32,1204.78 1092.4,1190.39 1094.48,1175.64 1096.55,1160.55 1098.63,1145.12 1100.71,1129.37 1102.78,1113.31 1104.86,1096.95 1106.94,1080.3 
  1109.01,1063.36 1111.09,1046.17 1113.17,1028.72 1115.24,1011.03 1117.32,993.118 1119.39,974.992 1121.47,956.669 1123.55,938.163 1125.62,919.489 1127.7,900.661 
  1129.78,881.695 1131.85,862.606 1133.93,843.411 1136.01,824.125 1138.08,804.764 1140.16,785.344 1142.24,765.883 1144.31,746.397 1146.39,726.901 1148.47,707.414 
  1150.54,687.953 1152.62,668.533 1154.69,649.172 1156.77,629.888 1158.85,610.697 1160.92,591.616 1163,572.662 1165.08,553.853 1167.15,535.205 1169.23,516.735 
  1171.31,498.459 1173.38,480.395 1175.46,462.559 1177.54,444.967 1179.61,427.635 1181.69,410.58 1183.77,393.816 1185.84,377.36 1187.92,361.227 1189.99,345.431 
  1192.07,329.988 1194.15,314.911 1196.22,300.216 1198.3,285.915 1200.38,272.022 1202.45,258.551 1204.53,245.514 1206.61,232.922 1208.68,220.789 1210.76,209.126 
  1212.84,197.943 1214.91,187.251 1216.99,177.061 1219.07,167.383 1221.14,158.224 1223.22,149.595 1225.29,141.503 1227.37,133.956 1229.45,126.962 1231.52,120.526 
  1233.6,114.656 1235.68,109.357 1237.75,104.633 1239.83,100.49 1241.91,96.9318 1243.98,93.9611 1246.06,91.5811 1248.14,89.7941 1250.21,88.6018 1252.29,88.0053 
  1254.37,88.0053 1256.44,88.6018 1258.52,89.7941 1260.59,91.5811 1262.67,93.9611 1264.75,96.9318 1266.82,100.49 1268.9,104.633 1270.98,109.357 1273.05,114.656 
  1275.13,120.526 1277.21,126.962 1279.28,133.956 1281.36,141.503 1283.44,149.595 1285.51,158.224 1287.59,167.383 1289.67,177.061 1291.74,187.251 1293.82,197.943 
  1295.89,209.126 1297.97,220.789 1300.05,232.922 1302.12,245.514 1304.2,258.551 1306.28,272.022 1308.35,285.915 1310.43,300.216 1312.51,314.911 1314.58,329.988 
  1316.66,345.431 1318.74,361.227 1320.81,377.36 1322.89,393.816 1324.97,410.58 1327.04,427.635 1329.12,444.967 1331.19,462.559 1333.27,480.395 1335.35,498.459 
  1337.42,516.735 1339.5,535.205 1341.58,553.853 1343.65,572.662 1345.73,591.616 1347.81,610.697 1349.88,629.888 1351.96,649.172 1354.04,668.533 1356.11,687.953 
  1358.19,707.414 1360.27,726.901 1362.34,746.397 1364.42,765.883 1366.49,785.344 1368.57,804.764 1370.65,824.125 1372.72,843.411 1374.8,862.606 1376.88,881.695 
  1378.95,900.661 1381.03,919.489 1383.11,938.163 1385.18,956.669 1387.26,974.992 1389.34,993.118 1391.41,1011.03 1393.49,1028.72 1395.57,1046.17 1397.64,1063.36 
  1399.72,1080.3 1401.79,1096.95 1403.87,1113.31 1405.95,1129.37 1408.02,1145.12 1410.1,1160.55 1412.18,1175.64 1414.25,1190.39 1416.33,1204.78 1418.41,1218.81 
  1420.48,1232.47 1422.56,1245.75 1424.64,1258.64 1426.71,1271.14 1428.79,1283.23 1430.87,1294.92 1432.94,1306.19 1435.02,1317.04 1437.09,1327.47 1439.17,1337.47 
  1441.25,1347.04 1443.32,1356.17 1445.4,1364.87 1447.48,1373.12 1449.55,1380.93 1451.63,1388.3 1453.71,1395.22 1455.78,1401.7 1457.86,1407.74 1459.94,1413.32 
  1462.01,1418.47 1464.09,1423.17 1466.17,1427.44 1468.24,1431.27 1470.32,1434.66 1472.39,1437.62 1474.47,1440.16 1476.55,1442.28 1478.62,1443.98 1480.7,1445.26 
  1482.78,1446.15 1484.85,1446.63 1486.93,1446.71 1489.01,1446.41 1491.08,1445.73 1493.16,1444.68 1495.24,1443.27 1497.31,1441.5 1499.39,1439.38 1501.47,1436.92 
  1503.54,1434.14 1505.62,1431.03 1507.69,1427.61 1509.77,1423.9 1511.85,1419.89 1513.92,1415.61 1516,1411.06 1518.08,1406.25 1520.15,1401.19 1522.23,1395.9 
  1524.31,1390.38 1526.38,1384.66 1528.46,1378.73 1530.54,1372.61 1532.61,1366.32 1534.69,1359.86 1536.77,1353.25 1538.84,1346.49 1540.92,1339.61 1542.99,1332.61 
  1545.07,1325.51 1547.15,1318.31 1549.22,1311.04 1551.3,1303.69 1553.38,1296.29 1555.45,1288.84 1557.53,1281.36 1559.61,1273.86 1561.68,1266.35 1563.76,1258.84 
  1565.84,1251.35 1567.91,1243.87 1569.99,1236.43 1572.07,1229.04 1574.14,1221.71 1576.22,1214.44 1578.29,1207.24 1580.37,1200.14 1582.45,1193.13 1584.52,1186.22 
  1586.6,1179.43 1588.68,1172.77 1590.75,1166.23 1592.83,1159.84 1594.91,1153.6 1596.98,1147.51 1599.06,1141.58 1601.14,1135.83 1603.21,1130.25 1605.29,1124.85 
  1607.37,1119.65 1609.44,1114.64 1611.52,1109.83 1613.59,1105.23 1615.67,1100.84 1617.75,1096.66 1619.82,1092.71 1621.9,1088.97 1623.98,1085.46 1626.05,1082.18 
  1628.13,1079.13 1630.21,1076.31 1632.28,1073.73 1634.36,1071.38 1636.44,1069.27 1638.51,1067.4 1640.59,1065.77 1642.67,1064.38 1644.74,1063.22 1646.82,1062.3 
  1648.89,1061.61 1650.97,1061.16 1653.05,1060.95 1655.12,1060.96 1657.2,1061.2 1659.28,1061.67 1661.35,1062.36 1663.43,1063.27 1665.51,1064.4 1667.58,1065.74 
  1669.66,1067.28 1671.74,1069.03 1673.81,1070.98 1675.89,1073.12 1677.97,1075.44 1680.04,1077.95 1682.12,1080.64 1684.19,1083.5 1686.27,1086.53 1688.35,1089.71 
  1690.42,1093.04 1692.5,1096.53 1694.58,1100.15 1696.65,1103.9 1698.73,1107.78 1700.81,1111.77 1702.88,1115.88 1704.96,1120.09 1707.04,1124.39 1709.11,1128.79 
  1711.19,1133.26 1713.27,1137.81 1715.34,1142.42 1717.42,1147.09 1719.49,1151.81 1721.57,1156.57 1723.65,1161.36 1725.72,1166.19 1727.8,1171.02 1729.88,1175.88 
  1731.95,1180.73 1734.03,1185.58 1736.11,1190.42 1738.18,1195.23 1740.26,1200.02 1742.34,1204.78 1744.41,1209.5 1746.49,1214.17 1748.57,1218.78 1750.64,1223.33 
  1752.72,1227.81 1754.79,1232.22 1756.87,1236.55 1758.95,1240.79 1761.02,1244.93 1763.1,1248.98 1765.18,1252.93 1767.25,1256.76 1769.33,1260.48 1771.41,1264.08 
  1773.48,1267.55 1775.56,1270.9 1777.64,1274.12 1779.71,1277.19 1781.79,1280.13 1783.87,1282.92 1785.94,1285.56 1788.02,1288.06 1790.09,1290.4 1792.17,1292.59 
  1794.25,1294.61 1796.32,1296.48 1798.4,1298.19 1800.48,1299.73 1802.55,1301.11 1804.63,1302.32 1806.71,1303.37 1808.78,1304.25 1810.86,1304.97 1812.94,1305.52 
  1815.01,1305.9 1817.09,1306.12 1819.17,1306.17 1821.24,1306.07 1823.32,1305.79 1825.39,1305.36 1827.47,1304.77 1829.55,1304.03 1831.62,1303.13 1833.7,1302.08 
  1835.78,1300.88 1837.85,1299.53 1839.93,1298.04 1842.01,1296.41 1844.08,1294.65 1846.16,1292.75 1848.24,1290.73 1850.31,1288.58 1852.39,1286.31 1854.47,1283.93 
  1856.54,1281.43 1858.62,1278.83 1860.69,1276.13 1862.77,1273.33 1864.85,1270.44 1866.92,1267.47 1869,1264.41 1871.08,1261.28 1873.15,1258.07 1875.23,1254.81 
  1877.31,1251.48 1879.38,1248.1 1881.46,1244.67 1883.54,1241.2 1885.61,1237.7 1887.69,1234.16 1889.77,1230.6 1891.84,1227.02 1893.92,1223.42 1895.99,1219.82 
  1898.07,1216.22 1900.15,1212.62 1902.22,1209.03 1904.3,1205.46 1906.38,1201.91 1908.45,1198.38 1910.53,1194.88 1912.61,1191.43 1914.68,1188.01 1916.76,1184.64 
  1918.84,1181.32 1920.91,1178.07 1922.99,1174.87 1925.07,1171.74 1927.14,1168.68 1929.22,1165.7 1931.29,1162.79 1933.37,1159.97 1935.45,1157.24 1937.52,1154.6 
  1939.6,1152.05 1941.68,1149.61 1943.75,1147.26 1945.83,1145.02 1947.91,1142.89 1949.98,1140.87 1952.06,1138.97 1954.14,1137.17 1956.21,1135.5 1958.29,1133.95 
  1960.37,1132.51 1962.44,1131.21 1964.52,1130.02 1966.59,1128.96 1968.67,1128.03 1970.75,1127.22 1972.82,1126.54 1974.9,1125.99 1976.98,1125.57 1979.05,1125.28 
  1981.13,1125.11 1983.21,1125.07 1985.28,1125.16 1987.36,1125.37 1989.44,1125.71 1991.51,1126.18 1993.59,1126.76 1995.67,1127.47 1997.74,1128.29 1999.82,1129.23 
  2001.89,1130.29 2003.97,1131.45 2006.05,1132.73 2008.12,1134.12 2010.2,1135.61 2012.28,1137.2 2014.35,1138.89 2016.43,1140.67 2018.51,1142.55 2020.58,1144.51 
  2022.66,1146.56 2024.74,1148.7 2026.81,1150.9 2028.89,1153.19 2030.97,1155.54 2033.04,1157.95 2035.12,1160.43 2037.19,1162.97 2039.27,1165.55 2041.35,1168.19 
  2043.42,1170.87 2045.5,1173.59 2047.58,1176.34 2049.65,1179.12 2051.73,1181.93 2053.81,1184.76 2055.88,1187.61 2057.96,1190.47 2060.04,1193.34 2062.11,1196.2 
  2064.19,1199.07 2066.27,1201.93 2068.34,1204.78 2070.42,1207.62 2072.49,1210.43 2074.57,1213.22 2076.65,1215.98 2078.72,1218.71 2080.8,1221.4 2082.88,1224.05 
  2084.95,1226.66 2087.03,1229.22 2089.11,1231.72 2091.18,1234.17 2093.26,1236.56 2095.34,1238.89 2097.41,1241.14 2099.49,1243.33 2101.57,1245.45 2103.64,1247.48 
  2105.72,1249.44 2107.79,1251.32 2109.87,1253.12 2111.95,1254.82 2114.02,1256.44 2116.1,1257.97 2118.18,1259.4 2120.25,1260.74 2122.33,1261.98 2124.41,1263.12 
  2126.48,1264.16 2128.56,1265.1 2130.64,1265.94 2132.71,1266.68 2134.79,1267.32 2136.87,1267.85 2138.94,1268.27 2141.02,1268.6 2143.09,1268.81 2145.17,1268.93 
  2147.25,1268.94 2149.32,1268.84 2151.4,1268.64 2153.48,1268.34 2155.55,1267.94 2157.63,1267.44 2159.71,1266.84 2161.78,1266.15 2163.86,1265.35 2165.94,1264.47 
  2168.01,1263.49 2170.09,1262.42 2172.17,1261.26 2174.24,1260.02 2176.32,1258.69 2178.39,1257.28 2180.47,1255.8 2182.55,1254.23 2184.62,1252.6 2186.7,1250.89 
  2188.78,1249.12 2190.85,1247.28 2192.93,1245.38 2195.01,1243.43 2197.08,1241.42 2199.16,1239.36 2201.24,1237.25 2203.31,1235.1 2205.39,1232.91 2207.47,1230.68 
  2209.54,1228.43 2211.62,1226.14 2213.69,1223.82 2215.77,1221.49 2217.85,1219.14 2219.92,1216.77 2222,1214.39 2224.08,1212.01 2226.15,1209.63 2228.23,1207.24 
  2230.31,1204.87 2232.38,1202.5 2234.46,1200.14 2236.54,1197.8 2238.61,1195.48 2240.69,1193.19 2242.77,1190.92 2244.84,1188.68 2246.92,1186.48 2248.99,1184.31 
  2251.07,1182.19 2253.15,1180.11 2255.22,1178.07 2257.3,1176.09 2259.38,1174.16 2261.45,1172.29 2263.53,1170.47 2265.61,1168.72 2267.68,1167.03 2269.76,1165.41 
  2271.84,1163.85 2273.91,1162.37 2275.99,1160.96 2278.07,1159.62 2280.14,1158.36 2282.22,1157.18 2284.29,1156.08 2286.37,1155.06 2288.45,1154.13 2290.52,1153.27 
  
  "/>
<polygon clip-path="url(#clip0800)" points="
1989.93,251.724 2280.76,251.724 2280.76,130.764 1989.93,130.764 
  " fill="#ffffff" fill-rule="evenodd" fill-opacity="1"/>
<polyline clip-path="url(#clip0800)" style="stroke:#000000; stroke-width:4; stroke-opacity:1; fill:none" points="
  1989.93,251.724 2280.76,251.724 2280.76,130.764 1989.93,130.764 1989.93,251.724 
  "/>
<polyline clip-path="url(#clip0800)" style="stroke:#009af9; stroke-width:4; stroke-opacity:1; fill:none" points="
  2013.93,191.244 2157.93,191.244 
  "/>
<g clip-path="url(#clip0800)">
<text style="fill:#000000; fill-opacity:1; font-family:Arial,Helvetica Neue,Helvetica,sans-serif; font-size:48px; text-anchor:start;" transform="rotate(0, 2181.93, 208.744)" x="2181.93" y="208.744">y1</text>
</g>
</svg>
